%TF.GenerationSoftware,KiCad,Pcbnew,9.0.7*%
%TF.CreationDate,2026-05-05T11:45:34-06:00*%
%TF.ProjectId,4-21 kicad of inverted pendalum,342d3231-206b-4696-9361-64206f662069,rev?*%
%TF.SameCoordinates,Original*%
%TF.FileFunction,Soldermask,Bot*%
%TF.FilePolarity,Negative*%
%FSLAX46Y46*%
G04 Gerber Fmt 4.6, Leading zero omitted, Abs format (unit mm)*
G04 Created by KiCad (PCBNEW 9.0.7) date 2026-05-05 11:45:34*
%MOMM*%
%LPD*%
G01*
G04 APERTURE LIST*
G04 Aperture macros list*
%AMRoundRect*
0 Rectangle with rounded corners*
0 $1 Rounding radius*
0 $2 $3 $4 $5 $6 $7 $8 $9 X,Y pos of 4 corners*
0 Add a 4 corners polygon primitive as box body*
4,1,4,$2,$3,$4,$5,$6,$7,$8,$9,$2,$3,0*
0 Add four circle primitives for the rounded corners*
1,1,$1+$1,$2,$3*
1,1,$1+$1,$4,$5*
1,1,$1+$1,$6,$7*
1,1,$1+$1,$8,$9*
0 Add four rect primitives between the rounded corners*
20,1,$1+$1,$2,$3,$4,$5,0*
20,1,$1+$1,$4,$5,$6,$7,0*
20,1,$1+$1,$6,$7,$8,$9,0*
20,1,$1+$1,$8,$9,$2,$3,0*%
G04 Aperture macros list end*
%ADD10RoundRect,0.250000X0.600000X0.750000X-0.600000X0.750000X-0.600000X-0.750000X0.600000X-0.750000X0*%
%ADD11O,1.700000X2.000000*%
%ADD12RoundRect,0.250000X0.600000X0.725000X-0.600000X0.725000X-0.600000X-0.725000X0.600000X-0.725000X0*%
%ADD13O,1.700000X1.950000*%
%ADD14RoundRect,0.250000X-0.600000X-0.750000X0.600000X-0.750000X0.600000X0.750000X-0.600000X0.750000X0*%
%ADD15C,0.900000*%
%ADD16R,1.700000X1.700000*%
%ADD17C,1.700000*%
%ADD18C,0.650000*%
%ADD19O,2.100000X1.000000*%
%ADD20O,1.600000X1.000000*%
%ADD21RoundRect,0.250000X-0.600000X-0.725000X0.600000X-0.725000X0.600000X0.725000X-0.600000X0.725000X0*%
G04 APERTURE END LIST*
D10*
%TO.C,J2*%
X212500000Y-64000000D03*
D11*
X210000000Y-64000000D03*
%TD*%
D12*
%TO.C,J5*%
X180500000Y-87800000D03*
D13*
X178000000Y-87800000D03*
X175500000Y-87800000D03*
X173000000Y-87800000D03*
%TD*%
D14*
%TO.C,J1*%
X218500000Y-63000000D03*
D11*
X221000000Y-63000000D03*
%TD*%
D15*
%TO.C,S1*%
X212500000Y-102000000D03*
X215500000Y-102000000D03*
%TD*%
D16*
%TO.C,J4*%
X190380000Y-74000000D03*
D17*
X190380000Y-76540000D03*
X192920000Y-74000000D03*
X192920000Y-76540000D03*
X195460000Y-74000000D03*
X195460000Y-76540000D03*
X198000000Y-74000000D03*
X198000000Y-76540000D03*
%TD*%
D16*
%TO.C,J7*%
X231800000Y-82980000D03*
D17*
X231800000Y-85520000D03*
X231800000Y-88060000D03*
X231800000Y-90600000D03*
X231800000Y-93140000D03*
X231800000Y-95680000D03*
X231800000Y-98220000D03*
X231800000Y-100760000D03*
%TD*%
D18*
%TO.C,J9*%
X175745000Y-94810000D03*
X175745000Y-100590000D03*
D19*
X176245000Y-93380000D03*
D20*
X172065000Y-93380000D03*
D19*
X176245000Y-102020000D03*
D20*
X172065000Y-102020000D03*
%TD*%
D21*
%TO.C,J8*%
X186400000Y-86800000D03*
D13*
X188900000Y-86800000D03*
X191400000Y-86800000D03*
X193900000Y-86800000D03*
X196400000Y-86800000D03*
%TD*%
D14*
%TO.C,J3*%
X201500000Y-63000000D03*
D11*
X204000000Y-63000000D03*
%TD*%
D15*
%TO.C,S2*%
X170550000Y-76700000D03*
X170550000Y-79700000D03*
%TD*%
D16*
%TO.C,J6*%
X200060000Y-101600000D03*
D17*
X202600000Y-101600000D03*
X205140000Y-101600000D03*
X207680000Y-101600000D03*
%TD*%
M02*
