%TF.GenerationSoftware,KiCad,Pcbnew,9.0.7*%
%TF.CreationDate,2026-05-05T11:45:34-06:00*%
%TF.ProjectId,4-21 kicad of inverted pendalum,342d3231-206b-4696-9361-64206f662069,rev?*%
%TF.SameCoordinates,Original*%
%TF.FileFunction,Soldermask,Top*%
%TF.FilePolarity,Negative*%
%FSLAX46Y46*%
G04 Gerber Fmt 4.6, Leading zero omitted, Abs format (unit mm)*
G04 Created by KiCad (PCBNEW 9.0.7) date 2026-05-05 11:45:34*
%MOMM*%
%LPD*%
G01*
G04 APERTURE LIST*
G04 Aperture macros list*
%AMRoundRect*
0 Rectangle with rounded corners*
0 $1 Rounding radius*
0 $2 $3 $4 $5 $6 $7 $8 $9 X,Y pos of 4 corners*
0 Add a 4 corners polygon primitive as box body*
4,1,4,$2,$3,$4,$5,$6,$7,$8,$9,$2,$3,0*
0 Add four circle primitives for the rounded corners*
1,1,$1+$1,$2,$3*
1,1,$1+$1,$4,$5*
1,1,$1+$1,$6,$7*
1,1,$1+$1,$8,$9*
0 Add four rect primitives between the rounded corners*
20,1,$1+$1,$2,$3,$4,$5,0*
20,1,$1+$1,$4,$5,$6,$7,0*
20,1,$1+$1,$6,$7,$8,$9,0*
20,1,$1+$1,$8,$9,$2,$3,0*%
G04 Aperture macros list end*
%ADD10RoundRect,0.250000X-0.450000X0.325000X-0.450000X-0.325000X0.450000X-0.325000X0.450000X0.325000X0*%
%ADD11RoundRect,0.250000X-0.337500X-0.475000X0.337500X-0.475000X0.337500X0.475000X-0.337500X0.475000X0*%
%ADD12RoundRect,0.250000X0.475000X-0.337500X0.475000X0.337500X-0.475000X0.337500X-0.475000X-0.337500X0*%
%ADD13RoundRect,0.250000X0.337500X0.475000X-0.337500X0.475000X-0.337500X-0.475000X0.337500X-0.475000X0*%
%ADD14RoundRect,0.250000X-0.350000X-0.450000X0.350000X-0.450000X0.350000X0.450000X-0.350000X0.450000X0*%
%ADD15RoundRect,0.250000X-0.475000X0.337500X-0.475000X-0.337500X0.475000X-0.337500X0.475000X0.337500X0*%
%ADD16RoundRect,0.250000X0.600000X0.750000X-0.600000X0.750000X-0.600000X-0.750000X0.600000X-0.750000X0*%
%ADD17O,1.700000X2.000000*%
%ADD18RoundRect,0.250000X0.600000X0.725000X-0.600000X0.725000X-0.600000X-0.725000X0.600000X-0.725000X0*%
%ADD19O,1.700000X1.950000*%
%ADD20RoundRect,0.250000X-0.450000X-0.350000X0.450000X-0.350000X0.450000X0.350000X-0.450000X0.350000X0*%
%ADD21R,2.300000X1.500000*%
%ADD22RoundRect,0.150000X-0.512500X-0.150000X0.512500X-0.150000X0.512500X0.150000X-0.512500X0.150000X0*%
%ADD23RoundRect,0.100000X-0.100000X0.850000X-0.100000X-0.850000X0.100000X-0.850000X0.100000X0.850000X0*%
%ADD24RoundRect,0.250000X-0.600000X-0.750000X0.600000X-0.750000X0.600000X0.750000X-0.600000X0.750000X0*%
%ADD25RoundRect,0.250000X0.450000X-0.350000X0.450000X0.350000X-0.450000X0.350000X-0.450000X-0.350000X0*%
%ADD26RoundRect,0.250000X-0.312500X-1.450000X0.312500X-1.450000X0.312500X1.450000X-0.312500X1.450000X0*%
%ADD27C,0.900000*%
%ADD28RoundRect,0.102000X-0.450000X-0.625000X0.450000X-0.625000X0.450000X0.625000X-0.450000X0.625000X0*%
%ADD29RoundRect,0.102000X-0.400000X-0.450000X0.400000X-0.450000X0.400000X0.450000X-0.400000X0.450000X0*%
%ADD30RoundRect,0.250000X0.325000X0.450000X-0.325000X0.450000X-0.325000X-0.450000X0.325000X-0.450000X0*%
%ADD31R,1.700000X1.700000*%
%ADD32C,1.700000*%
%ADD33C,0.650000*%
%ADD34RoundRect,0.150000X-0.500000X0.150000X-0.500000X-0.150000X0.500000X-0.150000X0.500000X0.150000X0*%
%ADD35RoundRect,0.075000X-0.575000X0.075000X-0.575000X-0.075000X0.575000X-0.075000X0.575000X0.075000X0*%
%ADD36O,2.100000X1.000000*%
%ADD37O,1.600000X1.000000*%
%ADD38RoundRect,0.075000X0.700000X0.075000X-0.700000X0.075000X-0.700000X-0.075000X0.700000X-0.075000X0*%
%ADD39RoundRect,0.075000X0.075000X0.700000X-0.075000X0.700000X-0.075000X-0.700000X0.075000X-0.700000X0*%
%ADD40RoundRect,0.090000X0.660000X0.360000X-0.660000X0.360000X-0.660000X-0.360000X0.660000X-0.360000X0*%
%ADD41RoundRect,0.375000X-0.375000X0.625000X-0.375000X-0.625000X0.375000X-0.625000X0.375000X0.625000X0*%
%ADD42RoundRect,0.500000X-1.400000X0.500000X-1.400000X-0.500000X1.400000X-0.500000X1.400000X0.500000X0*%
%ADD43RoundRect,0.250000X-0.600000X-0.725000X0.600000X-0.725000X0.600000X0.725000X-0.600000X0.725000X0*%
%ADD44RoundRect,0.250000X-0.450000X0.350000X-0.450000X-0.350000X0.450000X-0.350000X0.450000X0.350000X0*%
%ADD45RoundRect,0.102000X-0.625000X0.450000X-0.625000X-0.450000X0.625000X-0.450000X0.625000X0.450000X0*%
%ADD46RoundRect,0.102000X-0.450000X0.400000X-0.450000X-0.400000X0.450000X-0.400000X0.450000X0.400000X0*%
G04 APERTURE END LIST*
D10*
%TO.C,D2*%
X193550000Y-61175000D03*
X193550000Y-63225000D03*
%TD*%
%TO.C,D1*%
X189550000Y-61150000D03*
X189550000Y-63200000D03*
%TD*%
D11*
%TO.C,C2*%
X215262500Y-75500000D03*
X217337500Y-75500000D03*
%TD*%
D12*
%TO.C,C6*%
X179050000Y-66700000D03*
X179050000Y-64625000D03*
%TD*%
%TO.C,C8*%
X177000000Y-66732500D03*
X177000000Y-64657500D03*
%TD*%
D13*
%TO.C,C15*%
X217300000Y-77600000D03*
X215225000Y-77600000D03*
%TD*%
D14*
%TO.C,R4*%
X188800000Y-101200000D03*
X190800000Y-101200000D03*
%TD*%
D15*
%TO.C,C21*%
X214200000Y-93800000D03*
X214200000Y-95875000D03*
%TD*%
D12*
%TO.C,C12*%
X170500000Y-66737500D03*
X170500000Y-64662500D03*
%TD*%
D16*
%TO.C,J2*%
X212500000Y-64000000D03*
D17*
X210000000Y-64000000D03*
%TD*%
D18*
%TO.C,J5*%
X180500000Y-87800000D03*
D19*
X178000000Y-87800000D03*
X175500000Y-87800000D03*
X173000000Y-87800000D03*
%TD*%
D12*
%TO.C,C20*%
X214200000Y-91537500D03*
X214200000Y-89462500D03*
%TD*%
D20*
%TO.C,Y1*%
X217000000Y-93700000D03*
X219200000Y-93700000D03*
X219200000Y-92000000D03*
X217000000Y-92000000D03*
%TD*%
D21*
%TO.C,SW1*%
X227350000Y-85500000D03*
X220650000Y-85500000D03*
%TD*%
D22*
%TO.C,U5*%
X181574999Y-96650000D03*
X181574999Y-97600000D03*
X181574999Y-98550000D03*
X183849999Y-98550000D03*
X183849999Y-97600000D03*
X183849999Y-96650000D03*
%TD*%
D23*
%TO.C,U4*%
X212530000Y-69832500D03*
X211880000Y-69832500D03*
X211230000Y-69832500D03*
X210580000Y-69832500D03*
X209930000Y-69832500D03*
X209280000Y-69832500D03*
X208630000Y-69832500D03*
X207980000Y-69832500D03*
X207330000Y-69832500D03*
X206680000Y-69832500D03*
X206030000Y-69832500D03*
X205380000Y-69832500D03*
X205380000Y-76832500D03*
X206030000Y-76832500D03*
X206680000Y-76832500D03*
X207330000Y-76832500D03*
X207980000Y-76832500D03*
X208630000Y-76832500D03*
X209280000Y-76832500D03*
X209930000Y-76832500D03*
X210580000Y-76832500D03*
X211230000Y-76832500D03*
X211880000Y-76832500D03*
X212530000Y-76832500D03*
%TD*%
D24*
%TO.C,J1*%
X218500000Y-63000000D03*
D17*
X221000000Y-63000000D03*
%TD*%
D15*
%TO.C,C4*%
X199400000Y-93862500D03*
X199400000Y-95937500D03*
%TD*%
%TO.C,C14*%
X174550000Y-64625000D03*
X174550000Y-66700000D03*
%TD*%
D11*
%TO.C,C18*%
X213962500Y-87500000D03*
X216037500Y-87500000D03*
%TD*%
D25*
%TO.C,R9*%
X220100000Y-101600000D03*
X220100000Y-99600000D03*
%TD*%
D26*
%TO.C,F1*%
X181925000Y-101300000D03*
X186200000Y-101300000D03*
%TD*%
D27*
%TO.C,S1*%
X212500000Y-102000000D03*
X215500000Y-102000000D03*
D28*
X211750000Y-99925000D03*
X214750000Y-99925000D03*
X216250000Y-99925000D03*
D29*
X210200000Y-100950000D03*
X217800000Y-100950000D03*
X210200000Y-103050000D03*
X217800000Y-103050000D03*
%TD*%
D12*
%TO.C,C9*%
X187510000Y-67200000D03*
X187510000Y-65125000D03*
%TD*%
D14*
%TO.C,R3*%
X191500000Y-69500000D03*
X193500000Y-69500000D03*
%TD*%
D30*
%TO.C,D4*%
X194825000Y-101200000D03*
X192775000Y-101200000D03*
%TD*%
D31*
%TO.C,J4*%
X190380000Y-74000000D03*
D32*
X190380000Y-76540000D03*
X192920000Y-74000000D03*
X192920000Y-76540000D03*
X195460000Y-74000000D03*
X195460000Y-76540000D03*
X198000000Y-74000000D03*
X198000000Y-76540000D03*
%TD*%
D25*
%TO.C,R2*%
X193550000Y-67200000D03*
X193550000Y-65200000D03*
%TD*%
D12*
%TO.C,C11*%
X183050000Y-66732500D03*
X183050000Y-64657500D03*
%TD*%
D11*
%TO.C,C22*%
X200625000Y-79100000D03*
X202700000Y-79100000D03*
%TD*%
D31*
%TO.C,J7*%
X231800000Y-82980000D03*
D32*
X231800000Y-85520000D03*
X231800000Y-88060000D03*
X231800000Y-90600000D03*
X231800000Y-93140000D03*
X231800000Y-95680000D03*
X231800000Y-98220000D03*
X231800000Y-100760000D03*
%TD*%
D11*
%TO.C,C5*%
X215425000Y-84500000D03*
X217500000Y-84500000D03*
%TD*%
D13*
%TO.C,C1*%
X202700000Y-81100000D03*
X200625000Y-81100000D03*
%TD*%
D14*
%TO.C,R5*%
X179349999Y-93600000D03*
X181349999Y-93600000D03*
%TD*%
%TO.C,R8*%
X185849999Y-98100000D03*
X187849999Y-98100000D03*
%TD*%
D33*
%TO.C,J9*%
X175745000Y-94810000D03*
X175745000Y-100590000D03*
D34*
X176885000Y-94500000D03*
X176885000Y-95300000D03*
D35*
X176885000Y-96450000D03*
X176885000Y-97450000D03*
X176885000Y-97950000D03*
X176885000Y-98950000D03*
D34*
X176885000Y-100100000D03*
X176885000Y-100900000D03*
X176885000Y-100900000D03*
X176885000Y-100100000D03*
D35*
X176885000Y-99450000D03*
X176885000Y-98450000D03*
X176885000Y-96950000D03*
X176885000Y-95950000D03*
D34*
X176885000Y-95300000D03*
X176885000Y-94500000D03*
D36*
X176245000Y-93380000D03*
D37*
X172065000Y-93380000D03*
D36*
X176245000Y-102020000D03*
D37*
X172065000Y-102020000D03*
%TD*%
D38*
%TO.C,U1*%
X211925000Y-92575000D03*
X211925000Y-92075000D03*
X211925000Y-91575000D03*
X211925000Y-91075000D03*
X211925000Y-90575000D03*
X211925000Y-90075000D03*
X211925000Y-89575000D03*
X211925000Y-89075000D03*
X211925000Y-88575000D03*
X211925000Y-88075000D03*
X211925000Y-87575000D03*
X211925000Y-87075000D03*
X211925000Y-86575000D03*
X211925000Y-86075000D03*
X211925000Y-85575000D03*
X211925000Y-85075000D03*
D39*
X210000000Y-83150000D03*
X209500000Y-83150000D03*
X209000000Y-83150000D03*
X208500000Y-83150000D03*
X208000000Y-83150000D03*
X207500000Y-83150000D03*
X207000000Y-83150000D03*
X206500000Y-83150000D03*
X206000000Y-83150000D03*
X205500000Y-83150000D03*
X205000000Y-83150000D03*
X204500000Y-83150000D03*
X204000000Y-83150000D03*
X203500000Y-83150000D03*
X203000000Y-83150000D03*
X202500000Y-83150000D03*
D38*
X200575000Y-85075000D03*
X200575000Y-85575000D03*
X200575000Y-86075000D03*
X200575000Y-86575000D03*
X200575000Y-87075000D03*
X200575000Y-87575000D03*
X200575000Y-88075000D03*
X200575000Y-88575000D03*
X200575000Y-89075000D03*
X200575000Y-89575000D03*
X200575000Y-90075000D03*
X200575000Y-90575000D03*
X200575000Y-91075000D03*
X200575000Y-91575000D03*
X200575000Y-92075000D03*
X200575000Y-92575000D03*
D39*
X202500000Y-94500000D03*
X203000000Y-94500000D03*
X203500000Y-94500000D03*
X204000000Y-94500000D03*
X204500000Y-94500000D03*
X205000000Y-94500000D03*
X205500000Y-94500000D03*
X206000000Y-94500000D03*
X206500000Y-94500000D03*
X207000000Y-94500000D03*
X207500000Y-94500000D03*
X208000000Y-94500000D03*
X208500000Y-94500000D03*
X209000000Y-94500000D03*
X209500000Y-94500000D03*
X210000000Y-94500000D03*
%TD*%
D40*
%TO.C,D3*%
X227450000Y-78650000D03*
X227450000Y-75350000D03*
X222550000Y-75350000D03*
X222550000Y-78650000D03*
%TD*%
D14*
%TO.C,R7*%
X185849999Y-96100000D03*
X187849999Y-96100000D03*
%TD*%
D12*
%TO.C,C7*%
X185510000Y-67200000D03*
X185510000Y-65125000D03*
%TD*%
%TO.C,C19*%
X211500000Y-97037500D03*
X211500000Y-94962500D03*
%TD*%
D41*
%TO.C,U2*%
X187225000Y-69310000D03*
X184925000Y-69310000D03*
D42*
X184925000Y-75610000D03*
D41*
X182625000Y-69310000D03*
%TD*%
D12*
%TO.C,C10*%
X181050000Y-66700000D03*
X181050000Y-64625000D03*
%TD*%
D11*
%TO.C,C3*%
X215162500Y-79700000D03*
X217237500Y-79700000D03*
%TD*%
D25*
%TO.C,R1*%
X189550000Y-67200000D03*
X189550000Y-65200000D03*
%TD*%
D43*
%TO.C,J8*%
X186400000Y-86800000D03*
D19*
X188900000Y-86800000D03*
X191400000Y-86800000D03*
X193900000Y-86800000D03*
X196400000Y-86800000D03*
%TD*%
D41*
%TO.C,U3*%
X179850000Y-69400000D03*
X177550000Y-69400000D03*
D42*
X177550000Y-75700000D03*
D41*
X175250000Y-69400000D03*
%TD*%
D12*
%TO.C,C13*%
X172500000Y-66737500D03*
X172500000Y-64662500D03*
%TD*%
D13*
%TO.C,C16*%
X203537500Y-75000000D03*
X201462500Y-75000000D03*
%TD*%
D24*
%TO.C,J3*%
X201500000Y-63000000D03*
D17*
X204000000Y-63000000D03*
%TD*%
D44*
%TO.C,R6*%
X179349999Y-99600000D03*
X179349999Y-101600000D03*
%TD*%
D27*
%TO.C,S2*%
X170550000Y-76700000D03*
X170550000Y-79700000D03*
D45*
X172625000Y-75950000D03*
X172625000Y-78950000D03*
X172625000Y-80450000D03*
D46*
X171600000Y-74400000D03*
X171600000Y-82000000D03*
X169500000Y-74400000D03*
X169500000Y-82000000D03*
%TD*%
D13*
%TO.C,C17*%
X203537500Y-77000000D03*
X201462500Y-77000000D03*
%TD*%
D31*
%TO.C,J6*%
X200060000Y-101600000D03*
D32*
X202600000Y-101600000D03*
X205140000Y-101600000D03*
X207680000Y-101600000D03*
%TD*%
M02*
