%TF.GenerationSoftware,KiCad,Pcbnew,9.0.7*%
%TF.CreationDate,2026-05-05T11:45:33-06:00*%
%TF.ProjectId,4-21 kicad of inverted pendalum,342d3231-206b-4696-9361-64206f662069,rev?*%
%TF.SameCoordinates,Original*%
%TF.FileFunction,Legend,Top*%
%TF.FilePolarity,Positive*%
%FSLAX46Y46*%
G04 Gerber Fmt 4.6, Leading zero omitted, Abs format (unit mm)*
G04 Created by KiCad (PCBNEW 9.0.7) date 2026-05-05 11:45:33*
%MOMM*%
%LPD*%
G01*
G04 APERTURE LIST*
%ADD10C,0.150000*%
%ADD11C,0.254000*%
%ADD12C,0.120000*%
%ADD13C,0.100000*%
%ADD14C,0.200000*%
%ADD15C,0.127000*%
G04 APERTURE END LIST*
D10*
X193504819Y-59938094D02*
X192504819Y-59938094D01*
X192504819Y-59938094D02*
X192504819Y-59699999D01*
X192504819Y-59699999D02*
X192552438Y-59557142D01*
X192552438Y-59557142D02*
X192647676Y-59461904D01*
X192647676Y-59461904D02*
X192742914Y-59414285D01*
X192742914Y-59414285D02*
X192933390Y-59366666D01*
X192933390Y-59366666D02*
X193076247Y-59366666D01*
X193076247Y-59366666D02*
X193266723Y-59414285D01*
X193266723Y-59414285D02*
X193361961Y-59461904D01*
X193361961Y-59461904D02*
X193457200Y-59557142D01*
X193457200Y-59557142D02*
X193504819Y-59699999D01*
X193504819Y-59699999D02*
X193504819Y-59938094D01*
X192600057Y-58985713D02*
X192552438Y-58938094D01*
X192552438Y-58938094D02*
X192504819Y-58842856D01*
X192504819Y-58842856D02*
X192504819Y-58604761D01*
X192504819Y-58604761D02*
X192552438Y-58509523D01*
X192552438Y-58509523D02*
X192600057Y-58461904D01*
X192600057Y-58461904D02*
X192695295Y-58414285D01*
X192695295Y-58414285D02*
X192790533Y-58414285D01*
X192790533Y-58414285D02*
X192933390Y-58461904D01*
X192933390Y-58461904D02*
X193504819Y-59033332D01*
X193504819Y-59033332D02*
X193504819Y-58414285D01*
X190004819Y-59913094D02*
X189004819Y-59913094D01*
X189004819Y-59913094D02*
X189004819Y-59674999D01*
X189004819Y-59674999D02*
X189052438Y-59532142D01*
X189052438Y-59532142D02*
X189147676Y-59436904D01*
X189147676Y-59436904D02*
X189242914Y-59389285D01*
X189242914Y-59389285D02*
X189433390Y-59341666D01*
X189433390Y-59341666D02*
X189576247Y-59341666D01*
X189576247Y-59341666D02*
X189766723Y-59389285D01*
X189766723Y-59389285D02*
X189861961Y-59436904D01*
X189861961Y-59436904D02*
X189957200Y-59532142D01*
X189957200Y-59532142D02*
X190004819Y-59674999D01*
X190004819Y-59674999D02*
X190004819Y-59913094D01*
X190004819Y-58389285D02*
X190004819Y-58960713D01*
X190004819Y-58674999D02*
X189004819Y-58674999D01*
X189004819Y-58674999D02*
X189147676Y-58770237D01*
X189147676Y-58770237D02*
X189242914Y-58865475D01*
X189242914Y-58865475D02*
X189290533Y-58960713D01*
X220523809Y-90978628D02*
X220523809Y-91454819D01*
X220190476Y-90454819D02*
X220523809Y-90978628D01*
X220523809Y-90978628D02*
X220857142Y-90454819D01*
X221714285Y-91454819D02*
X221142857Y-91454819D01*
X221428571Y-91454819D02*
X221428571Y-90454819D01*
X221428571Y-90454819D02*
X221333333Y-90597676D01*
X221333333Y-90597676D02*
X221238095Y-90692914D01*
X221238095Y-90692914D02*
X221142857Y-90740533D01*
D11*
X222556666Y-86013842D02*
X222738095Y-86074318D01*
X222738095Y-86074318D02*
X223040476Y-86074318D01*
X223040476Y-86074318D02*
X223161428Y-86013842D01*
X223161428Y-86013842D02*
X223221904Y-85953365D01*
X223221904Y-85953365D02*
X223282381Y-85832413D01*
X223282381Y-85832413D02*
X223282381Y-85711461D01*
X223282381Y-85711461D02*
X223221904Y-85590508D01*
X223221904Y-85590508D02*
X223161428Y-85530032D01*
X223161428Y-85530032D02*
X223040476Y-85469556D01*
X223040476Y-85469556D02*
X222798571Y-85409080D01*
X222798571Y-85409080D02*
X222677619Y-85348603D01*
X222677619Y-85348603D02*
X222617142Y-85288127D01*
X222617142Y-85288127D02*
X222556666Y-85167175D01*
X222556666Y-85167175D02*
X222556666Y-85046222D01*
X222556666Y-85046222D02*
X222617142Y-84925270D01*
X222617142Y-84925270D02*
X222677619Y-84864794D01*
X222677619Y-84864794D02*
X222798571Y-84804318D01*
X222798571Y-84804318D02*
X223100952Y-84804318D01*
X223100952Y-84804318D02*
X223282381Y-84864794D01*
X223705714Y-84804318D02*
X224008095Y-86074318D01*
X224008095Y-86074318D02*
X224250000Y-85167175D01*
X224250000Y-85167175D02*
X224491905Y-86074318D01*
X224491905Y-86074318D02*
X224794286Y-84804318D01*
X225943334Y-86074318D02*
X225217619Y-86074318D01*
X225580476Y-86074318D02*
X225580476Y-84804318D01*
X225580476Y-84804318D02*
X225459524Y-84985746D01*
X225459524Y-84985746D02*
X225338572Y-85106699D01*
X225338572Y-85106699D02*
X225217619Y-85167175D01*
D10*
X182338095Y-94654819D02*
X182338095Y-95464342D01*
X182338095Y-95464342D02*
X182385714Y-95559580D01*
X182385714Y-95559580D02*
X182433333Y-95607200D01*
X182433333Y-95607200D02*
X182528571Y-95654819D01*
X182528571Y-95654819D02*
X182719047Y-95654819D01*
X182719047Y-95654819D02*
X182814285Y-95607200D01*
X182814285Y-95607200D02*
X182861904Y-95559580D01*
X182861904Y-95559580D02*
X182909523Y-95464342D01*
X182909523Y-95464342D02*
X182909523Y-94654819D01*
X183861904Y-94654819D02*
X183385714Y-94654819D01*
X183385714Y-94654819D02*
X183338095Y-95131009D01*
X183338095Y-95131009D02*
X183385714Y-95083390D01*
X183385714Y-95083390D02*
X183480952Y-95035771D01*
X183480952Y-95035771D02*
X183719047Y-95035771D01*
X183719047Y-95035771D02*
X183814285Y-95083390D01*
X183814285Y-95083390D02*
X183861904Y-95131009D01*
X183861904Y-95131009D02*
X183909523Y-95226247D01*
X183909523Y-95226247D02*
X183909523Y-95464342D01*
X183909523Y-95464342D02*
X183861904Y-95559580D01*
X183861904Y-95559580D02*
X183814285Y-95607200D01*
X183814285Y-95607200D02*
X183719047Y-95654819D01*
X183719047Y-95654819D02*
X183480952Y-95654819D01*
X183480952Y-95654819D02*
X183385714Y-95607200D01*
X183385714Y-95607200D02*
X183338095Y-95559580D01*
X213554819Y-72061904D02*
X214364342Y-72061904D01*
X214364342Y-72061904D02*
X214459580Y-72014285D01*
X214459580Y-72014285D02*
X214507200Y-71966666D01*
X214507200Y-71966666D02*
X214554819Y-71871428D01*
X214554819Y-71871428D02*
X214554819Y-71680952D01*
X214554819Y-71680952D02*
X214507200Y-71585714D01*
X214507200Y-71585714D02*
X214459580Y-71538095D01*
X214459580Y-71538095D02*
X214364342Y-71490476D01*
X214364342Y-71490476D02*
X213554819Y-71490476D01*
X213888152Y-70585714D02*
X214554819Y-70585714D01*
X213507200Y-70823809D02*
X214221485Y-71061904D01*
X214221485Y-71061904D02*
X214221485Y-70442857D01*
X180166666Y-103231009D02*
X179833333Y-103231009D01*
X179833333Y-103754819D02*
X179833333Y-102754819D01*
X179833333Y-102754819D02*
X180309523Y-102754819D01*
X181214285Y-103754819D02*
X180642857Y-103754819D01*
X180928571Y-103754819D02*
X180928571Y-102754819D01*
X180928571Y-102754819D02*
X180833333Y-102897676D01*
X180833333Y-102897676D02*
X180738095Y-102992914D01*
X180738095Y-102992914D02*
X180642857Y-103040533D01*
X196061905Y-102654819D02*
X196061905Y-101654819D01*
X196061905Y-101654819D02*
X196300000Y-101654819D01*
X196300000Y-101654819D02*
X196442857Y-101702438D01*
X196442857Y-101702438D02*
X196538095Y-101797676D01*
X196538095Y-101797676D02*
X196585714Y-101892914D01*
X196585714Y-101892914D02*
X196633333Y-102083390D01*
X196633333Y-102083390D02*
X196633333Y-102226247D01*
X196633333Y-102226247D02*
X196585714Y-102416723D01*
X196585714Y-102416723D02*
X196538095Y-102511961D01*
X196538095Y-102511961D02*
X196442857Y-102607200D01*
X196442857Y-102607200D02*
X196300000Y-102654819D01*
X196300000Y-102654819D02*
X196061905Y-102654819D01*
X197490476Y-101988152D02*
X197490476Y-102654819D01*
X197252381Y-101607200D02*
X197014286Y-102321485D01*
X197014286Y-102321485D02*
X197633333Y-102321485D01*
X187064819Y-75603333D02*
X187779104Y-75603333D01*
X187779104Y-75603333D02*
X187921961Y-75650952D01*
X187921961Y-75650952D02*
X188017200Y-75746190D01*
X188017200Y-75746190D02*
X188064819Y-75889047D01*
X188064819Y-75889047D02*
X188064819Y-75984285D01*
X187398152Y-74698571D02*
X188064819Y-74698571D01*
X187017200Y-74936666D02*
X187731485Y-75174761D01*
X187731485Y-75174761D02*
X187731485Y-74555714D01*
X231466666Y-79664819D02*
X231466666Y-80379104D01*
X231466666Y-80379104D02*
X231419047Y-80521961D01*
X231419047Y-80521961D02*
X231323809Y-80617200D01*
X231323809Y-80617200D02*
X231180952Y-80664819D01*
X231180952Y-80664819D02*
X231085714Y-80664819D01*
X231847619Y-79664819D02*
X232514285Y-79664819D01*
X232514285Y-79664819D02*
X232085714Y-80664819D01*
X201033333Y-83159580D02*
X200985714Y-83207200D01*
X200985714Y-83207200D02*
X200842857Y-83254819D01*
X200842857Y-83254819D02*
X200747619Y-83254819D01*
X200747619Y-83254819D02*
X200604762Y-83207200D01*
X200604762Y-83207200D02*
X200509524Y-83111961D01*
X200509524Y-83111961D02*
X200461905Y-83016723D01*
X200461905Y-83016723D02*
X200414286Y-82826247D01*
X200414286Y-82826247D02*
X200414286Y-82683390D01*
X200414286Y-82683390D02*
X200461905Y-82492914D01*
X200461905Y-82492914D02*
X200509524Y-82397676D01*
X200509524Y-82397676D02*
X200604762Y-82302438D01*
X200604762Y-82302438D02*
X200747619Y-82254819D01*
X200747619Y-82254819D02*
X200842857Y-82254819D01*
X200842857Y-82254819D02*
X200985714Y-82302438D01*
X200985714Y-82302438D02*
X201033333Y-82350057D01*
X201985714Y-83254819D02*
X201414286Y-83254819D01*
X201700000Y-83254819D02*
X201700000Y-82254819D01*
X201700000Y-82254819D02*
X201604762Y-82397676D01*
X201604762Y-82397676D02*
X201509524Y-82492914D01*
X201509524Y-82492914D02*
X201414286Y-82540533D01*
X173094819Y-100033333D02*
X173809104Y-100033333D01*
X173809104Y-100033333D02*
X173951961Y-100080952D01*
X173951961Y-100080952D02*
X174047200Y-100176190D01*
X174047200Y-100176190D02*
X174094819Y-100319047D01*
X174094819Y-100319047D02*
X174094819Y-100414285D01*
X174094819Y-99509523D02*
X174094819Y-99319047D01*
X174094819Y-99319047D02*
X174047200Y-99223809D01*
X174047200Y-99223809D02*
X173999580Y-99176190D01*
X173999580Y-99176190D02*
X173856723Y-99080952D01*
X173856723Y-99080952D02*
X173666247Y-99033333D01*
X173666247Y-99033333D02*
X173285295Y-99033333D01*
X173285295Y-99033333D02*
X173190057Y-99080952D01*
X173190057Y-99080952D02*
X173142438Y-99128571D01*
X173142438Y-99128571D02*
X173094819Y-99223809D01*
X173094819Y-99223809D02*
X173094819Y-99414285D01*
X173094819Y-99414285D02*
X173142438Y-99509523D01*
X173142438Y-99509523D02*
X173190057Y-99557142D01*
X173190057Y-99557142D02*
X173285295Y-99604761D01*
X173285295Y-99604761D02*
X173523390Y-99604761D01*
X173523390Y-99604761D02*
X173618628Y-99557142D01*
X173618628Y-99557142D02*
X173666247Y-99509523D01*
X173666247Y-99509523D02*
X173713866Y-99414285D01*
X173713866Y-99414285D02*
X173713866Y-99223809D01*
X173713866Y-99223809D02*
X173666247Y-99128571D01*
X173666247Y-99128571D02*
X173618628Y-99080952D01*
X173618628Y-99080952D02*
X173523390Y-99033333D01*
X205438095Y-86654819D02*
X205438095Y-87464342D01*
X205438095Y-87464342D02*
X205485714Y-87559580D01*
X205485714Y-87559580D02*
X205533333Y-87607200D01*
X205533333Y-87607200D02*
X205628571Y-87654819D01*
X205628571Y-87654819D02*
X205819047Y-87654819D01*
X205819047Y-87654819D02*
X205914285Y-87607200D01*
X205914285Y-87607200D02*
X205961904Y-87559580D01*
X205961904Y-87559580D02*
X206009523Y-87464342D01*
X206009523Y-87464342D02*
X206009523Y-86654819D01*
X207009523Y-87654819D02*
X206438095Y-87654819D01*
X206723809Y-87654819D02*
X206723809Y-86654819D01*
X206723809Y-86654819D02*
X206628571Y-86797676D01*
X206628571Y-86797676D02*
X206533333Y-86892914D01*
X206533333Y-86892914D02*
X206438095Y-86940533D01*
X224261905Y-80954819D02*
X224261905Y-79954819D01*
X224261905Y-79954819D02*
X224500000Y-79954819D01*
X224500000Y-79954819D02*
X224642857Y-80002438D01*
X224642857Y-80002438D02*
X224738095Y-80097676D01*
X224738095Y-80097676D02*
X224785714Y-80192914D01*
X224785714Y-80192914D02*
X224833333Y-80383390D01*
X224833333Y-80383390D02*
X224833333Y-80526247D01*
X224833333Y-80526247D02*
X224785714Y-80716723D01*
X224785714Y-80716723D02*
X224738095Y-80811961D01*
X224738095Y-80811961D02*
X224642857Y-80907200D01*
X224642857Y-80907200D02*
X224500000Y-80954819D01*
X224500000Y-80954819D02*
X224261905Y-80954819D01*
X225166667Y-79954819D02*
X225785714Y-79954819D01*
X225785714Y-79954819D02*
X225452381Y-80335771D01*
X225452381Y-80335771D02*
X225595238Y-80335771D01*
X225595238Y-80335771D02*
X225690476Y-80383390D01*
X225690476Y-80383390D02*
X225738095Y-80431009D01*
X225738095Y-80431009D02*
X225785714Y-80526247D01*
X225785714Y-80526247D02*
X225785714Y-80764342D01*
X225785714Y-80764342D02*
X225738095Y-80859580D01*
X225738095Y-80859580D02*
X225690476Y-80907200D01*
X225690476Y-80907200D02*
X225595238Y-80954819D01*
X225595238Y-80954819D02*
X225309524Y-80954819D01*
X225309524Y-80954819D02*
X225214286Y-80907200D01*
X225214286Y-80907200D02*
X225166667Y-80859580D01*
X228771428Y-78237704D02*
X229228571Y-78237704D01*
X228999999Y-78237704D02*
X228999999Y-79037704D01*
X228999999Y-79037704D02*
X229076190Y-78923419D01*
X229076190Y-78923419D02*
X229152380Y-78847228D01*
X229152380Y-78847228D02*
X229228571Y-78809133D01*
X188738095Y-68954819D02*
X188738095Y-69764342D01*
X188738095Y-69764342D02*
X188785714Y-69859580D01*
X188785714Y-69859580D02*
X188833333Y-69907200D01*
X188833333Y-69907200D02*
X188928571Y-69954819D01*
X188928571Y-69954819D02*
X189119047Y-69954819D01*
X189119047Y-69954819D02*
X189214285Y-69907200D01*
X189214285Y-69907200D02*
X189261904Y-69859580D01*
X189261904Y-69859580D02*
X189309523Y-69764342D01*
X189309523Y-69764342D02*
X189309523Y-68954819D01*
X189738095Y-69050057D02*
X189785714Y-69002438D01*
X189785714Y-69002438D02*
X189880952Y-68954819D01*
X189880952Y-68954819D02*
X190119047Y-68954819D01*
X190119047Y-68954819D02*
X190214285Y-69002438D01*
X190214285Y-69002438D02*
X190261904Y-69050057D01*
X190261904Y-69050057D02*
X190309523Y-69145295D01*
X190309523Y-69145295D02*
X190309523Y-69240533D01*
X190309523Y-69240533D02*
X190261904Y-69383390D01*
X190261904Y-69383390D02*
X189690476Y-69954819D01*
X189690476Y-69954819D02*
X190309523Y-69954819D01*
X172238095Y-68454819D02*
X172238095Y-69264342D01*
X172238095Y-69264342D02*
X172285714Y-69359580D01*
X172285714Y-69359580D02*
X172333333Y-69407200D01*
X172333333Y-69407200D02*
X172428571Y-69454819D01*
X172428571Y-69454819D02*
X172619047Y-69454819D01*
X172619047Y-69454819D02*
X172714285Y-69407200D01*
X172714285Y-69407200D02*
X172761904Y-69359580D01*
X172761904Y-69359580D02*
X172809523Y-69264342D01*
X172809523Y-69264342D02*
X172809523Y-68454819D01*
X173190476Y-68454819D02*
X173809523Y-68454819D01*
X173809523Y-68454819D02*
X173476190Y-68835771D01*
X173476190Y-68835771D02*
X173619047Y-68835771D01*
X173619047Y-68835771D02*
X173714285Y-68883390D01*
X173714285Y-68883390D02*
X173761904Y-68931009D01*
X173761904Y-68931009D02*
X173809523Y-69026247D01*
X173809523Y-69026247D02*
X173809523Y-69264342D01*
X173809523Y-69264342D02*
X173761904Y-69359580D01*
X173761904Y-69359580D02*
X173714285Y-69407200D01*
X173714285Y-69407200D02*
X173619047Y-69454819D01*
X173619047Y-69454819D02*
X173333333Y-69454819D01*
X173333333Y-69454819D02*
X173238095Y-69407200D01*
X173238095Y-69407200D02*
X173190476Y-69359580D01*
X169957200Y-73461904D02*
X170004819Y-73319047D01*
X170004819Y-73319047D02*
X170004819Y-73080952D01*
X170004819Y-73080952D02*
X169957200Y-72985714D01*
X169957200Y-72985714D02*
X169909580Y-72938095D01*
X169909580Y-72938095D02*
X169814342Y-72890476D01*
X169814342Y-72890476D02*
X169719104Y-72890476D01*
X169719104Y-72890476D02*
X169623866Y-72938095D01*
X169623866Y-72938095D02*
X169576247Y-72985714D01*
X169576247Y-72985714D02*
X169528628Y-73080952D01*
X169528628Y-73080952D02*
X169481009Y-73271428D01*
X169481009Y-73271428D02*
X169433390Y-73366666D01*
X169433390Y-73366666D02*
X169385771Y-73414285D01*
X169385771Y-73414285D02*
X169290533Y-73461904D01*
X169290533Y-73461904D02*
X169195295Y-73461904D01*
X169195295Y-73461904D02*
X169100057Y-73414285D01*
X169100057Y-73414285D02*
X169052438Y-73366666D01*
X169052438Y-73366666D02*
X169004819Y-73271428D01*
X169004819Y-73271428D02*
X169004819Y-73033333D01*
X169004819Y-73033333D02*
X169052438Y-72890476D01*
X169100057Y-72509523D02*
X169052438Y-72461904D01*
X169052438Y-72461904D02*
X169004819Y-72366666D01*
X169004819Y-72366666D02*
X169004819Y-72128571D01*
X169004819Y-72128571D02*
X169052438Y-72033333D01*
X169052438Y-72033333D02*
X169100057Y-71985714D01*
X169100057Y-71985714D02*
X169195295Y-71938095D01*
X169195295Y-71938095D02*
X169290533Y-71938095D01*
X169290533Y-71938095D02*
X169433390Y-71985714D01*
X169433390Y-71985714D02*
X170004819Y-72557142D01*
X170004819Y-72557142D02*
X170004819Y-71938095D01*
X198966666Y-97054819D02*
X198966666Y-97769104D01*
X198966666Y-97769104D02*
X198919047Y-97911961D01*
X198919047Y-97911961D02*
X198823809Y-98007200D01*
X198823809Y-98007200D02*
X198680952Y-98054819D01*
X198680952Y-98054819D02*
X198585714Y-98054819D01*
X199871428Y-97054819D02*
X199680952Y-97054819D01*
X199680952Y-97054819D02*
X199585714Y-97102438D01*
X199585714Y-97102438D02*
X199538095Y-97150057D01*
X199538095Y-97150057D02*
X199442857Y-97292914D01*
X199442857Y-97292914D02*
X199395238Y-97483390D01*
X199395238Y-97483390D02*
X199395238Y-97864342D01*
X199395238Y-97864342D02*
X199442857Y-97959580D01*
X199442857Y-97959580D02*
X199490476Y-98007200D01*
X199490476Y-98007200D02*
X199585714Y-98054819D01*
X199585714Y-98054819D02*
X199776190Y-98054819D01*
X199776190Y-98054819D02*
X199871428Y-98007200D01*
X199871428Y-98007200D02*
X199919047Y-97959580D01*
X199919047Y-97959580D02*
X199966666Y-97864342D01*
X199966666Y-97864342D02*
X199966666Y-97626247D01*
X199966666Y-97626247D02*
X199919047Y-97531009D01*
X199919047Y-97531009D02*
X199871428Y-97483390D01*
X199871428Y-97483390D02*
X199776190Y-97435771D01*
X199776190Y-97435771D02*
X199585714Y-97435771D01*
X199585714Y-97435771D02*
X199490476Y-97483390D01*
X199490476Y-97483390D02*
X199442857Y-97531009D01*
X199442857Y-97531009D02*
X199395238Y-97626247D01*
D12*
%TO.C,D2*%
X192590000Y-60340000D02*
X192590000Y-63200000D01*
X194510000Y-60340000D02*
X192590000Y-60340000D01*
X194510000Y-63200000D02*
X194510000Y-60340000D01*
%TO.C,D1*%
X188590000Y-60315000D02*
X188590000Y-63175000D01*
X190510000Y-60315000D02*
X188590000Y-60315000D01*
X190510000Y-63175000D02*
X190510000Y-60315000D01*
%TO.C,C2*%
X216038748Y-74765000D02*
X216561252Y-74765000D01*
X216038748Y-76235000D02*
X216561252Y-76235000D01*
%TO.C,C6*%
X178315000Y-65923752D02*
X178315000Y-65401248D01*
X179785000Y-65923752D02*
X179785000Y-65401248D01*
%TO.C,C8*%
X176265000Y-65956252D02*
X176265000Y-65433748D01*
X177735000Y-65956252D02*
X177735000Y-65433748D01*
%TO.C,C15*%
X216523752Y-76865000D02*
X216001248Y-76865000D01*
X216523752Y-78335000D02*
X216001248Y-78335000D01*
%TO.C,R4*%
X189572936Y-100465000D02*
X190027064Y-100465000D01*
X189572936Y-101935000D02*
X190027064Y-101935000D01*
%TO.C,C21*%
X213465000Y-94576248D02*
X213465000Y-95098752D01*
X214935000Y-94576248D02*
X214935000Y-95098752D01*
%TO.C,C12*%
X169765000Y-65961252D02*
X169765000Y-65438748D01*
X171235000Y-65961252D02*
X171235000Y-65438748D01*
%TO.C,J2*%
X207450000Y-64200000D02*
X208200000Y-64200000D01*
X208200000Y-61250000D02*
X211250000Y-61250000D01*
X208200000Y-64200000D02*
X208200000Y-61250000D01*
X214100000Y-66750000D02*
X215350000Y-66750000D01*
X214300000Y-61250000D02*
X211250000Y-61250000D01*
X214300000Y-64200000D02*
X214300000Y-61250000D01*
X215050000Y-64200000D02*
X214300000Y-64200000D01*
X215350000Y-66750000D02*
X215350000Y-65500000D01*
X209250000Y-66450000D02*
X207450000Y-66450000D01*
X207450000Y-65700000D01*
X209250000Y-65700000D01*
X209250000Y-66450000D01*
X211750000Y-66450000D02*
X210750000Y-66450000D01*
X210750000Y-65700000D01*
X211750000Y-65700000D01*
X211750000Y-66450000D01*
X215050000Y-66450000D02*
X213250000Y-66450000D01*
X213250000Y-65700000D01*
X215050000Y-65700000D01*
X215050000Y-66450000D01*
X215060000Y-66460000D02*
X207440000Y-66460000D01*
X207440000Y-60490000D01*
X215060000Y-60490000D01*
X215060000Y-66460000D01*
%TO.C,J5*%
X170450000Y-88000000D02*
X171200000Y-88000000D01*
X171200000Y-85050000D02*
X176750000Y-85050000D01*
X171200000Y-88000000D02*
X171200000Y-85050000D01*
X182100000Y-90550000D02*
X183350000Y-90550000D01*
X182300000Y-85050000D02*
X176750000Y-85050000D01*
X182300000Y-88000000D02*
X182300000Y-85050000D01*
X183050000Y-88000000D02*
X182300000Y-88000000D01*
X183350000Y-90550000D02*
X183350000Y-89300000D01*
X172250000Y-90250000D02*
X170450000Y-90250000D01*
X170450000Y-89500000D01*
X172250000Y-89500000D01*
X172250000Y-90250000D01*
X179750000Y-90250000D02*
X173750000Y-90250000D01*
X173750000Y-89500000D01*
X179750000Y-89500000D01*
X179750000Y-90250000D01*
X183050000Y-90250000D02*
X181250000Y-90250000D01*
X181250000Y-89500000D01*
X183050000Y-89500000D01*
X183050000Y-90250000D01*
X183060000Y-90260000D02*
X170440000Y-90260000D01*
X170440000Y-84290000D01*
X183060000Y-84290000D01*
X183060000Y-90260000D01*
%TO.C,C20*%
X213465000Y-90761252D02*
X213465000Y-90238748D01*
X214935000Y-90761252D02*
X214935000Y-90238748D01*
%TO.C,Y1*%
X216040000Y-91140000D02*
X216040000Y-94560000D01*
X216040000Y-94560000D02*
X220160000Y-94560000D01*
D13*
%TO.C,SW1*%
X221000000Y-83750000D02*
X221000000Y-84500000D01*
X221000000Y-87250000D02*
X221000000Y-86500000D01*
X227000000Y-83750000D02*
X221000000Y-83750000D01*
X227000000Y-84500000D02*
X227000000Y-83750000D01*
X227000000Y-86500000D02*
X227000000Y-87250000D01*
X227000000Y-87250000D02*
X221000000Y-87250000D01*
D14*
X228900000Y-85400000D02*
X228900000Y-85400000D01*
X228900000Y-85600000D02*
X228900000Y-85600000D01*
X228900000Y-85400000D02*
G75*
G02*
X228900000Y-85600000I0J-100000D01*
G01*
X228900000Y-85600000D02*
G75*
G02*
X228900000Y-85400000I0J100000D01*
G01*
D12*
%TO.C,U5*%
X181802499Y-96040000D02*
X183622499Y-96040000D01*
X181802499Y-96090000D02*
X181802499Y-96040000D01*
X181802499Y-99160000D02*
X181802499Y-99110000D01*
X183622499Y-96040000D02*
X183622499Y-96090000D01*
X183622499Y-99110000D02*
X183622499Y-99160000D01*
X183622499Y-99160000D02*
X181802499Y-99160000D01*
X181262499Y-96090000D02*
X181022499Y-95760000D01*
X181502499Y-95760000D01*
X181262499Y-96090000D01*
G36*
X181262499Y-96090000D02*
G01*
X181022499Y-95760000D01*
X181502499Y-95760000D01*
X181262499Y-96090000D01*
G37*
%TO.C,U4*%
X204745000Y-70572500D02*
X204920000Y-70572500D01*
X204745000Y-76092500D02*
X204745000Y-70572500D01*
X204920000Y-76092500D02*
X204745000Y-76092500D01*
X212990000Y-70572500D02*
X213165000Y-70572500D01*
X213165000Y-70572500D02*
X213165000Y-76092500D01*
X213165000Y-76092500D02*
X212990000Y-76092500D01*
X213465000Y-70172500D02*
X212995000Y-69832500D01*
X213465000Y-69492500D01*
X213465000Y-70172500D01*
G36*
X213465000Y-70172500D02*
G01*
X212995000Y-69832500D01*
X213465000Y-69492500D01*
X213465000Y-70172500D01*
G37*
%TO.C,J1*%
X215650000Y-60250000D02*
X215650000Y-61500000D01*
X215950000Y-62800000D02*
X216700000Y-62800000D01*
X216700000Y-62800000D02*
X216700000Y-65750000D01*
X216700000Y-65750000D02*
X219750000Y-65750000D01*
X216900000Y-60250000D02*
X215650000Y-60250000D01*
X222800000Y-62800000D02*
X222800000Y-65750000D01*
X222800000Y-65750000D02*
X219750000Y-65750000D01*
X223550000Y-62800000D02*
X222800000Y-62800000D01*
X215940000Y-60540000D02*
X223560000Y-60540000D01*
X223560000Y-66510000D01*
X215940000Y-66510000D01*
X215940000Y-60540000D01*
X215950000Y-60550000D02*
X217750000Y-60550000D01*
X217750000Y-61300000D01*
X215950000Y-61300000D01*
X215950000Y-60550000D01*
X219250000Y-60550000D02*
X220250000Y-60550000D01*
X220250000Y-61300000D01*
X219250000Y-61300000D01*
X219250000Y-60550000D01*
X221750000Y-60550000D02*
X223550000Y-60550000D01*
X223550000Y-61300000D01*
X221750000Y-61300000D01*
X221750000Y-60550000D01*
%TO.C,C4*%
X198665000Y-94638748D02*
X198665000Y-95161252D01*
X200135000Y-94638748D02*
X200135000Y-95161252D01*
%TO.C,C14*%
X173815000Y-65401248D02*
X173815000Y-65923752D01*
X175285000Y-65401248D02*
X175285000Y-65923752D01*
%TO.C,C18*%
X214738748Y-86765000D02*
X215261252Y-86765000D01*
X214738748Y-88235000D02*
X215261252Y-88235000D01*
%TO.C,R9*%
X219365000Y-100827064D02*
X219365000Y-100372936D01*
X220835000Y-100827064D02*
X220835000Y-100372936D01*
%TO.C,F1*%
X182676248Y-99590000D02*
X185448752Y-99590000D01*
X182676248Y-103010000D02*
X185448752Y-103010000D01*
D15*
%TO.C,S1*%
X210675000Y-101750000D02*
X210675000Y-102250000D01*
X211000000Y-103375000D02*
X217000000Y-103375000D01*
X212750000Y-100625000D02*
X213800000Y-100625000D01*
X217325000Y-101750000D02*
X217325000Y-102250000D01*
D14*
X211800000Y-98600000D02*
G75*
G02*
X211600000Y-98600000I-100000J0D01*
G01*
X211600000Y-98600000D02*
G75*
G02*
X211800000Y-98600000I100000J0D01*
G01*
D12*
%TO.C,C9*%
X186775000Y-66423752D02*
X186775000Y-65901248D01*
X188245000Y-66423752D02*
X188245000Y-65901248D01*
%TO.C,R3*%
X192272936Y-68765000D02*
X192727064Y-68765000D01*
X192272936Y-70235000D02*
X192727064Y-70235000D01*
%TO.C,D4*%
X192800000Y-102160000D02*
X195660000Y-102160000D01*
X195660000Y-100240000D02*
X192800000Y-100240000D01*
X195660000Y-102160000D02*
X195660000Y-100240000D01*
%TO.C,J4*%
X189050000Y-72670000D02*
X190380000Y-72670000D01*
X189050000Y-74000000D02*
X189050000Y-72670000D01*
X189050000Y-75270000D02*
X191650000Y-75270000D01*
X189050000Y-77870000D02*
X189050000Y-75270000D01*
X189050000Y-77870000D02*
X199330000Y-77870000D01*
X191650000Y-72670000D02*
X199330000Y-72670000D01*
X191650000Y-75270000D02*
X191650000Y-72670000D01*
X199330000Y-77870000D02*
X199330000Y-72670000D01*
%TO.C,R2*%
X192815000Y-66427064D02*
X192815000Y-65972936D01*
X194285000Y-66427064D02*
X194285000Y-65972936D01*
%TO.C,C11*%
X182315000Y-65956252D02*
X182315000Y-65433748D01*
X183785000Y-65956252D02*
X183785000Y-65433748D01*
%TO.C,C22*%
X201401248Y-78365000D02*
X201923752Y-78365000D01*
X201401248Y-79835000D02*
X201923752Y-79835000D01*
%TO.C,J7*%
X230470000Y-84250000D02*
X230470000Y-102090000D01*
X230470000Y-84250000D02*
X233130000Y-84250000D01*
X230470000Y-102090000D02*
X233130000Y-102090000D01*
X231800000Y-81650000D02*
X233130000Y-81650000D01*
X233130000Y-81650000D02*
X233130000Y-82980000D01*
X233130000Y-84250000D02*
X233130000Y-102090000D01*
%TO.C,C5*%
X216201248Y-83765000D02*
X216723752Y-83765000D01*
X216201248Y-85235000D02*
X216723752Y-85235000D01*
%TO.C,C1*%
X201923752Y-80365000D02*
X201401248Y-80365000D01*
X201923752Y-81835000D02*
X201401248Y-81835000D01*
%TO.C,R5*%
X180122935Y-92865000D02*
X180577063Y-92865000D01*
X180122935Y-94335000D02*
X180577063Y-94335000D01*
%TO.C,R8*%
X186622935Y-97365000D02*
X187077063Y-97365000D01*
X186622935Y-98835000D02*
X187077063Y-98835000D01*
%TO.C,J9*%
X174920000Y-93000000D02*
X173140000Y-93000000D01*
X174920000Y-102400000D02*
X173140000Y-102400000D01*
X177840000Y-94900000D02*
X177840000Y-94100000D01*
%TO.C,U1*%
X201140000Y-83715000D02*
X202090000Y-83715000D01*
X201140000Y-84665000D02*
X201140000Y-83715000D01*
X201140000Y-93935000D02*
X201140000Y-92985000D01*
X202090000Y-93935000D02*
X201140000Y-93935000D01*
X210410000Y-83715000D02*
X211360000Y-83715000D01*
X211360000Y-83715000D02*
X211360000Y-84665000D01*
X211360000Y-92985000D02*
X211360000Y-93935000D01*
X211360000Y-93935000D02*
X210410000Y-93935000D01*
X212340000Y-93455000D02*
X211660000Y-93455000D01*
X212000000Y-92985000D01*
X212340000Y-93455000D01*
G36*
X212340000Y-93455000D02*
G01*
X211660000Y-93455000D01*
X212000000Y-92985000D01*
X212340000Y-93455000D01*
G37*
%TO.C,D3*%
X221500000Y-74700000D02*
X221500000Y-79750000D01*
X221950000Y-74250000D02*
X221500000Y-74700000D01*
X222300000Y-76100000D02*
X222300000Y-77900000D01*
X227700000Y-76100000D02*
X227700000Y-77900000D01*
X228500000Y-74250000D02*
X221950000Y-74250000D01*
X228500000Y-79750000D02*
X221500000Y-79750000D01*
X228500000Y-79750000D02*
X228500000Y-74250000D01*
%TO.C,R7*%
X186622935Y-95365000D02*
X187077063Y-95365000D01*
X186622935Y-96835000D02*
X187077063Y-96835000D01*
%TO.C,C7*%
X184775000Y-66423752D02*
X184775000Y-65901248D01*
X186245000Y-66423752D02*
X186245000Y-65901248D01*
%TO.C,C19*%
X210765000Y-96261252D02*
X210765000Y-95738748D01*
X212235000Y-96261252D02*
X212235000Y-95738748D01*
%TO.C,U2*%
X181515000Y-70610000D02*
X181515000Y-74370000D01*
X181515000Y-74370000D02*
X182775000Y-74370000D01*
X188335000Y-70610000D02*
X188335000Y-74370000D01*
X188335000Y-74370000D02*
X187075000Y-74370000D01*
X188565000Y-69570000D02*
X188235000Y-69330000D01*
X188565000Y-69090000D01*
X188565000Y-69570000D01*
G36*
X188565000Y-69570000D02*
G01*
X188235000Y-69330000D01*
X188565000Y-69090000D01*
X188565000Y-69570000D01*
G37*
%TO.C,C10*%
X180315000Y-65923752D02*
X180315000Y-65401248D01*
X181785000Y-65923752D02*
X181785000Y-65401248D01*
%TO.C,C3*%
X215938748Y-78965000D02*
X216461252Y-78965000D01*
X215938748Y-80435000D02*
X216461252Y-80435000D01*
%TO.C,R1*%
X188815000Y-66427064D02*
X188815000Y-65972936D01*
X190285000Y-66427064D02*
X190285000Y-65972936D01*
%TO.C,J8*%
X183550000Y-84050000D02*
X183550000Y-85300000D01*
X183850000Y-86600000D02*
X184600000Y-86600000D01*
X184600000Y-86600000D02*
X184600000Y-89550000D01*
X184600000Y-89550000D02*
X191400000Y-89550000D01*
X184800000Y-84050000D02*
X183550000Y-84050000D01*
X198200000Y-86600000D02*
X198200000Y-89550000D01*
X198200000Y-89550000D02*
X191400000Y-89550000D01*
X198950000Y-86600000D02*
X198200000Y-86600000D01*
X183840000Y-84340000D02*
X198960000Y-84340000D01*
X198960000Y-90310000D01*
X183840000Y-90310000D01*
X183840000Y-84340000D01*
X183850000Y-84350000D02*
X185650000Y-84350000D01*
X185650000Y-85100000D01*
X183850000Y-85100000D01*
X183850000Y-84350000D01*
X187150000Y-84350000D02*
X195650000Y-84350000D01*
X195650000Y-85100000D01*
X187150000Y-85100000D01*
X187150000Y-84350000D01*
X197150000Y-84350000D02*
X198950000Y-84350000D01*
X198950000Y-85100000D01*
X197150000Y-85100000D01*
X197150000Y-84350000D01*
%TO.C,U3*%
X174140000Y-70700000D02*
X174140000Y-74460000D01*
X174140000Y-74460000D02*
X175400000Y-74460000D01*
X180960000Y-70700000D02*
X180960000Y-74460000D01*
X180960000Y-74460000D02*
X179700000Y-74460000D01*
X181190000Y-69660000D02*
X180860000Y-69420000D01*
X181190000Y-69180000D01*
X181190000Y-69660000D01*
G36*
X181190000Y-69660000D02*
G01*
X180860000Y-69420000D01*
X181190000Y-69180000D01*
X181190000Y-69660000D01*
G37*
%TO.C,C13*%
X171765000Y-65961252D02*
X171765000Y-65438748D01*
X173235000Y-65961252D02*
X173235000Y-65438748D01*
%TO.C,C16*%
X202761252Y-74265000D02*
X202238748Y-74265000D01*
X202761252Y-75735000D02*
X202238748Y-75735000D01*
%TO.C,J3*%
X198650000Y-60250000D02*
X198650000Y-61500000D01*
X198950000Y-62800000D02*
X199700000Y-62800000D01*
X199700000Y-62800000D02*
X199700000Y-65750000D01*
X199700000Y-65750000D02*
X202750000Y-65750000D01*
X199900000Y-60250000D02*
X198650000Y-60250000D01*
X205800000Y-62800000D02*
X205800000Y-65750000D01*
X205800000Y-65750000D02*
X202750000Y-65750000D01*
X206550000Y-62800000D02*
X205800000Y-62800000D01*
X198940000Y-60540000D02*
X206560000Y-60540000D01*
X206560000Y-66510000D01*
X198940000Y-66510000D01*
X198940000Y-60540000D01*
X198950000Y-60550000D02*
X200750000Y-60550000D01*
X200750000Y-61300000D01*
X198950000Y-61300000D01*
X198950000Y-60550000D01*
X202250000Y-60550000D02*
X203250000Y-60550000D01*
X203250000Y-61300000D01*
X202250000Y-61300000D01*
X202250000Y-60550000D01*
X204750000Y-60550000D02*
X206550000Y-60550000D01*
X206550000Y-61300000D01*
X204750000Y-61300000D01*
X204750000Y-60550000D01*
%TO.C,R6*%
X178614999Y-100372936D02*
X178614999Y-100827064D01*
X180084999Y-100372936D02*
X180084999Y-100827064D01*
D15*
%TO.C,S2*%
X169175000Y-75200000D02*
X169175000Y-81200000D01*
X170800000Y-74875000D02*
X170300000Y-74875000D01*
X170800000Y-81525000D02*
X170300000Y-81525000D01*
X171925000Y-76950000D02*
X171925000Y-78000000D01*
D14*
X174050000Y-75900000D02*
G75*
G02*
X173850000Y-75900000I-100000J0D01*
G01*
X173850000Y-75900000D02*
G75*
G02*
X174050000Y-75900000I100000J0D01*
G01*
D12*
%TO.C,C17*%
X202761252Y-76265000D02*
X202238748Y-76265000D01*
X202761252Y-77735000D02*
X202238748Y-77735000D01*
%TO.C,J6*%
X198680000Y-102980000D02*
X198680000Y-101600000D01*
X200060000Y-102980000D02*
X198680000Y-102980000D01*
X201330000Y-100220000D02*
X209060000Y-100220000D01*
X201330000Y-102980000D02*
X201330000Y-100220000D01*
X201330000Y-102980000D02*
X209060000Y-102980000D01*
X209060000Y-102980000D02*
X209060000Y-100220000D01*
%TD*%
M02*
