M48
; DRILL file {KiCad 9.0.7} date 2026-05-05T11:45:51-0600
; FORMAT={-:-/ absolute / metric / decimal}
; #@! TF.CreationDate,2026-05-05T11:45:51-06:00
; #@! TF.GenerationSoftware,Kicad,Pcbnew,9.0.7
; #@! TF.FileFunction,Plated,1,2,PTH
FMAT,2
METRIC
; #@! TA.AperFunction,Plated,PTH,ViaDrill
T1C0.300
; #@! TA.AperFunction,Plated,PTH,ComponentDrill
T2C0.600
; #@! TA.AperFunction,Plated,PTH,ComponentDrill
T3C0.950
; #@! TA.AperFunction,Plated,PTH,ComponentDrill
T4C1.000
%
G90
G05
T1
X169.8Y-92.0
X171.5Y-63.5
X172.1Y-88.7
X172.3Y-92.0
X174.35Y-94.1
X174.35Y-101.1
X175.5Y-63.5
X179.3Y-102.6
X180.0Y-63.5
X180.0Y-71.5
X180.35Y-97.6
X181.35Y-95.1
X183.707Y-64.0
X187.0Y-64.0
X187.0Y-71.0
X189.4Y-85.4
X190.0Y-71.5
X191.5Y-61.0
X194.8Y-100.1
X198.45Y-95.95
X199.2Y-79.6
X200.5Y-76.0
X201.9Y-92.1
X202.6Y-100.1
X203.573Y-81.1
X204.0Y-84.5
X206.1Y-79.0
X207.9Y-79.0
X208.5Y-75.0
X208.699Y-98.401
X209.0Y-68.0
X209.2Y-81.138
X209.5Y-84.5
X209.5Y-93.0
X210.122Y-96.978
X210.5Y-87.0
X210.5Y-99.5
X214.7Y-96.8
X215.2Y-81.2
X215.5Y-88.8
X217.5Y-83.1
X220.7Y-92.8
X222.5Y-63.0
X222.5Y-73.5
X230.5Y-86.0
T3
X173.0Y-87.8
X175.5Y-87.8
X178.0Y-87.8
X180.5Y-87.8
X186.4Y-86.8
X188.9Y-86.8
X191.4Y-86.8
X193.9Y-86.8
X196.4Y-86.8
T4
X190.38Y-74.0
X190.38Y-76.54
X192.92Y-74.0
X192.92Y-76.54
X195.46Y-74.0
X195.46Y-76.54
X198.0Y-74.0
X198.0Y-76.54
X200.06Y-101.6
X201.5Y-63.0
X202.6Y-101.6
X204.0Y-63.0
X205.14Y-101.6
X207.68Y-101.6
X210.0Y-64.0
X212.5Y-64.0
X218.5Y-63.0
X221.0Y-63.0
X231.8Y-82.98
X231.8Y-85.52
X231.8Y-88.06
X231.8Y-90.6
X231.8Y-93.14
X231.8Y-95.68
X231.8Y-98.22
X231.8Y-100.76
T2
G00X172.365Y-93.38
M15
G01X171.765Y-93.38
M16
G05
G00X172.365Y-102.02
M15
G01X171.765Y-102.02
M16
G05
G00X176.795Y-93.38
M15
G01X175.695Y-93.38
M16
G05
G00X176.795Y-102.02
M15
G01X175.695Y-102.02
M16
G05
M30
