%TF.GenerationSoftware,KiCad,Pcbnew,9.0.7*%
%TF.CreationDate,2026-04-28T11:46:31-06:00*%
%TF.ProjectId,PhilsLabTotorial,5068696c-734c-4616-9254-6f746f726961,rev?*%
%TF.SameCoordinates,Original*%
%TF.FileFunction,Copper,L2,Bot*%
%TF.FilePolarity,Positive*%
%FSLAX46Y46*%
G04 Gerber Fmt 4.6, Leading zero omitted, Abs format (unit mm)*
G04 Created by KiCad (PCBNEW 9.0.7) date 2026-04-28 11:46:31*
%MOMM*%
%LPD*%
G01*
G04 APERTURE LIST*
%TA.AperFunction,ComponentPad*%
%ADD10R,1.700000X1.700000*%
%TD*%
%TA.AperFunction,ComponentPad*%
%ADD11C,1.700000*%
%TD*%
%TA.AperFunction,HeatsinkPad*%
%ADD12O,1.800000X1.150000*%
%TD*%
%TA.AperFunction,HeatsinkPad*%
%ADD13O,2.000000X1.450000*%
%TD*%
%TA.AperFunction,ViaPad*%
%ADD14C,0.600000*%
%TD*%
%TA.AperFunction,Conductor*%
%ADD15C,0.500000*%
%TD*%
G04 APERTURE END LIST*
D10*
%TO.P,J2,1,Pin_1*%
%TO.N,+3.3V*%
X109120000Y-47000000D03*
D11*
%TO.P,J2,2,Pin_2*%
%TO.N,/SWDIO*%
X106580000Y-47000000D03*
%TO.P,J2,3,Pin_3*%
%TO.N,/SW_CLK*%
X104040000Y-47000000D03*
%TO.P,J2,4,Pin_4*%
%TO.N,GND*%
X101500000Y-47000000D03*
%TD*%
D10*
%TO.P,J4,1,Pin_1*%
%TO.N,+3.3V*%
X94460000Y-72000000D03*
D11*
%TO.P,J4,2,Pin_2*%
%TO.N,/I2C2_SCL*%
X97000000Y-72000000D03*
%TO.P,J4,3,Pin_3*%
%TO.N,/I2C2_SDA*%
X99540000Y-72000000D03*
%TO.P,J4,4,Pin_4*%
%TO.N,GND*%
X102080000Y-72000000D03*
%TD*%
D12*
%TO.P,J1,6,Shield*%
%TO.N,unconnected-(J1-Shield-Pad6)_3*%
X119000000Y-62750000D03*
D13*
%TO.N,unconnected-(J1-Shield-Pad6)*%
X115200000Y-62600000D03*
%TO.N,unconnected-(J1-Shield-Pad6)_1*%
X115200000Y-55150000D03*
D12*
%TO.N,unconnected-(J1-Shield-Pad6)_2*%
X119000000Y-55000000D03*
%TD*%
D10*
%TO.P,J3,1,Pin_1*%
%TO.N,+3.3V*%
X97310000Y-47000000D03*
D11*
%TO.P,J3,2,Pin_2*%
%TO.N,/UART1_TX*%
X94770000Y-47000000D03*
%TO.P,J3,3,Pin_3*%
%TO.N,/UART1_RX*%
X92230000Y-47000000D03*
%TO.P,J3,4,Pin_4*%
%TO.N,GND*%
X89690000Y-47000000D03*
%TD*%
D14*
%TO.N,GND*%
X97500000Y-58000000D03*
%TO.N,+3.3V*%
X101160000Y-68500000D03*
X99860000Y-68500000D03*
%TO.N,GND*%
X113500000Y-57000000D03*
X89500000Y-49000000D03*
X101500000Y-49500000D03*
X91500000Y-65500000D03*
X92290380Y-61290380D03*
X104500000Y-73500000D03*
X119000000Y-65000000D03*
X112500000Y-63000000D03*
X102500000Y-58000000D03*
X85500000Y-51000000D03*
X97500000Y-66000000D03*
X102000000Y-63000000D03*
X90000000Y-58500000D03*
X93000000Y-53500000D03*
%TD*%
D15*
%TO.N,+3.3V*%
X99860000Y-68500000D02*
X101160000Y-68500000D01*
%TD*%
%TA.AperFunction,Conductor*%
%TO.N,GND*%
G36*
X126943039Y-36519685D02*
G01*
X126988794Y-36572489D01*
X127000000Y-36624000D01*
X127000000Y-81379139D01*
X126980315Y-81446178D01*
X126927511Y-81491933D01*
X126879178Y-81503098D01*
X68628553Y-82996703D01*
X68561031Y-82978744D01*
X68513938Y-82927130D01*
X68501382Y-82871413D01*
X68587164Y-74893713D01*
X75649500Y-74893713D01*
X75649500Y-75106286D01*
X75682753Y-75316239D01*
X75748444Y-75518414D01*
X75844951Y-75707820D01*
X75969890Y-75879786D01*
X76120213Y-76030109D01*
X76292179Y-76155048D01*
X76292181Y-76155049D01*
X76292184Y-76155051D01*
X76481588Y-76251557D01*
X76683757Y-76317246D01*
X76893713Y-76350500D01*
X76893714Y-76350500D01*
X77106286Y-76350500D01*
X77106287Y-76350500D01*
X77316243Y-76317246D01*
X77518412Y-76251557D01*
X77707816Y-76155051D01*
X77729789Y-76139086D01*
X77879786Y-76030109D01*
X77879788Y-76030106D01*
X77879792Y-76030104D01*
X78030104Y-75879792D01*
X78030106Y-75879788D01*
X78030109Y-75879786D01*
X78155048Y-75707820D01*
X78155047Y-75707820D01*
X78155051Y-75707816D01*
X78251557Y-75518412D01*
X78317246Y-75316243D01*
X78350500Y-75106287D01*
X78350500Y-74893713D01*
X117649500Y-74893713D01*
X117649500Y-75106286D01*
X117682753Y-75316239D01*
X117748444Y-75518414D01*
X117844951Y-75707820D01*
X117969890Y-75879786D01*
X118120213Y-76030109D01*
X118292179Y-76155048D01*
X118292181Y-76155049D01*
X118292184Y-76155051D01*
X118481588Y-76251557D01*
X118683757Y-76317246D01*
X118893713Y-76350500D01*
X118893714Y-76350500D01*
X119106286Y-76350500D01*
X119106287Y-76350500D01*
X119316243Y-76317246D01*
X119518412Y-76251557D01*
X119707816Y-76155051D01*
X119729789Y-76139086D01*
X119879786Y-76030109D01*
X119879788Y-76030106D01*
X119879792Y-76030104D01*
X120030104Y-75879792D01*
X120030106Y-75879788D01*
X120030109Y-75879786D01*
X120155048Y-75707820D01*
X120155047Y-75707820D01*
X120155051Y-75707816D01*
X120251557Y-75518412D01*
X120317246Y-75316243D01*
X120350500Y-75106287D01*
X120350500Y-74893713D01*
X120317246Y-74683757D01*
X120251557Y-74481588D01*
X120155051Y-74292184D01*
X120155049Y-74292181D01*
X120155048Y-74292179D01*
X120030109Y-74120213D01*
X119879786Y-73969890D01*
X119707820Y-73844951D01*
X119518414Y-73748444D01*
X119518413Y-73748443D01*
X119518412Y-73748443D01*
X119316243Y-73682754D01*
X119316241Y-73682753D01*
X119316240Y-73682753D01*
X119154957Y-73657208D01*
X119106287Y-73649500D01*
X118893713Y-73649500D01*
X118845042Y-73657208D01*
X118683760Y-73682753D01*
X118481585Y-73748444D01*
X118292179Y-73844951D01*
X118120213Y-73969890D01*
X117969890Y-74120213D01*
X117844951Y-74292179D01*
X117748444Y-74481585D01*
X117682753Y-74683760D01*
X117649500Y-74893713D01*
X78350500Y-74893713D01*
X78317246Y-74683757D01*
X78251557Y-74481588D01*
X78155051Y-74292184D01*
X78155049Y-74292181D01*
X78155048Y-74292179D01*
X78030109Y-74120213D01*
X77879786Y-73969890D01*
X77707820Y-73844951D01*
X77518414Y-73748444D01*
X77518413Y-73748443D01*
X77518412Y-73748443D01*
X77316243Y-73682754D01*
X77316241Y-73682753D01*
X77316240Y-73682753D01*
X77154957Y-73657208D01*
X77106287Y-73649500D01*
X76893713Y-73649500D01*
X76845042Y-73657208D01*
X76683760Y-73682753D01*
X76481585Y-73748444D01*
X76292179Y-73844951D01*
X76120213Y-73969890D01*
X75969890Y-74120213D01*
X75844951Y-74292179D01*
X75748444Y-74481585D01*
X75682753Y-74683760D01*
X75649500Y-74893713D01*
X68587164Y-74893713D01*
X68627902Y-71105131D01*
X93309500Y-71105131D01*
X93309500Y-72894856D01*
X93309502Y-72894882D01*
X93312413Y-72919987D01*
X93312415Y-72919991D01*
X93357793Y-73022764D01*
X93357794Y-73022765D01*
X93437235Y-73102206D01*
X93540009Y-73147585D01*
X93565135Y-73150500D01*
X95354864Y-73150499D01*
X95354879Y-73150497D01*
X95354882Y-73150497D01*
X95379987Y-73147586D01*
X95379988Y-73147585D01*
X95379991Y-73147585D01*
X95482765Y-73102206D01*
X95562206Y-73022765D01*
X95607585Y-72919991D01*
X95610500Y-72894865D01*
X95610499Y-72157125D01*
X95630183Y-72090089D01*
X95682987Y-72044334D01*
X95752146Y-72034390D01*
X95815702Y-72063415D01*
X95853476Y-72122193D01*
X95856972Y-72137729D01*
X95877829Y-72269410D01*
X95933787Y-72441636D01*
X95933788Y-72441639D01*
X96016006Y-72602997D01*
X96122441Y-72749494D01*
X96122445Y-72749499D01*
X96250500Y-72877554D01*
X96250505Y-72877558D01*
X96374565Y-72967692D01*
X96397006Y-72983996D01*
X96473094Y-73022765D01*
X96558360Y-73066211D01*
X96558363Y-73066212D01*
X96644476Y-73094191D01*
X96730591Y-73122171D01*
X96813429Y-73135291D01*
X96909449Y-73150500D01*
X96909454Y-73150500D01*
X97090551Y-73150500D01*
X97177259Y-73136765D01*
X97269409Y-73122171D01*
X97441639Y-73066211D01*
X97602994Y-72983996D01*
X97749501Y-72877553D01*
X97877553Y-72749501D01*
X97983996Y-72602994D01*
X98066211Y-72441639D01*
X98122171Y-72269409D01*
X98136422Y-72179425D01*
X98147527Y-72109321D01*
X98177456Y-72046186D01*
X98236768Y-72009255D01*
X98306630Y-72010253D01*
X98364863Y-72048863D01*
X98392473Y-72109321D01*
X98417829Y-72269410D01*
X98473787Y-72441636D01*
X98473788Y-72441639D01*
X98556006Y-72602997D01*
X98662441Y-72749494D01*
X98662445Y-72749499D01*
X98790500Y-72877554D01*
X98790505Y-72877558D01*
X98914565Y-72967692D01*
X98937006Y-72983996D01*
X99013094Y-73022765D01*
X99098360Y-73066211D01*
X99098363Y-73066212D01*
X99184476Y-73094191D01*
X99270591Y-73122171D01*
X99353429Y-73135291D01*
X99449449Y-73150500D01*
X99449454Y-73150500D01*
X99630551Y-73150500D01*
X99717259Y-73136765D01*
X99809409Y-73122171D01*
X99981639Y-73066211D01*
X100142994Y-72983996D01*
X100265669Y-72894868D01*
X100289495Y-72877558D01*
X100289497Y-72877555D01*
X100289501Y-72877553D01*
X100417553Y-72749501D01*
X100523996Y-72602994D01*
X100591090Y-72471314D01*
X100639065Y-72420519D01*
X100706886Y-72403724D01*
X100773021Y-72426262D01*
X100816472Y-72480977D01*
X100819506Y-72489292D01*
X100828904Y-72518217D01*
X100925375Y-72707550D01*
X100964728Y-72761716D01*
X101597037Y-72129408D01*
X101614075Y-72192993D01*
X101679901Y-72307007D01*
X101772993Y-72400099D01*
X101887007Y-72465925D01*
X101950590Y-72482962D01*
X101318282Y-73115269D01*
X101318282Y-73115270D01*
X101372449Y-73154624D01*
X101561782Y-73251095D01*
X101763870Y-73316757D01*
X101973754Y-73350000D01*
X102186246Y-73350000D01*
X102396127Y-73316757D01*
X102396130Y-73316757D01*
X102598217Y-73251095D01*
X102787554Y-73154622D01*
X102841716Y-73115270D01*
X102841717Y-73115270D01*
X102209408Y-72482962D01*
X102272993Y-72465925D01*
X102387007Y-72400099D01*
X102480099Y-72307007D01*
X102545925Y-72192993D01*
X102562962Y-72129408D01*
X103195270Y-72761717D01*
X103195270Y-72761716D01*
X103234622Y-72707554D01*
X103331095Y-72518217D01*
X103396757Y-72316130D01*
X103396757Y-72316127D01*
X103430000Y-72106246D01*
X103430000Y-71893753D01*
X103396757Y-71683872D01*
X103396757Y-71683869D01*
X103331095Y-71481782D01*
X103234624Y-71292449D01*
X103195270Y-71238282D01*
X103195269Y-71238282D01*
X102562962Y-71870590D01*
X102545925Y-71807007D01*
X102480099Y-71692993D01*
X102387007Y-71599901D01*
X102272993Y-71534075D01*
X102209409Y-71517037D01*
X102841716Y-70884728D01*
X102787550Y-70845375D01*
X102598217Y-70748904D01*
X102396129Y-70683242D01*
X102186246Y-70650000D01*
X101973754Y-70650000D01*
X101763872Y-70683242D01*
X101763869Y-70683242D01*
X101561782Y-70748904D01*
X101372439Y-70845380D01*
X101318282Y-70884727D01*
X101318282Y-70884728D01*
X101950591Y-71517037D01*
X101887007Y-71534075D01*
X101772993Y-71599901D01*
X101679901Y-71692993D01*
X101614075Y-71807007D01*
X101597037Y-71870591D01*
X100964728Y-71238282D01*
X100964727Y-71238282D01*
X100925380Y-71292439D01*
X100828905Y-71481781D01*
X100819506Y-71510708D01*
X100780068Y-71568383D01*
X100715709Y-71595581D01*
X100646862Y-71583666D01*
X100595387Y-71536421D01*
X100591090Y-71528684D01*
X100567191Y-71481781D01*
X100523996Y-71397006D01*
X100510396Y-71378287D01*
X100417558Y-71250505D01*
X100417554Y-71250500D01*
X100289499Y-71122445D01*
X100289494Y-71122441D01*
X100165432Y-71032305D01*
X100142996Y-71016005D01*
X99981639Y-70933788D01*
X99981636Y-70933787D01*
X99809410Y-70877829D01*
X99630551Y-70849500D01*
X99630546Y-70849500D01*
X99449454Y-70849500D01*
X99449449Y-70849500D01*
X99270589Y-70877829D01*
X99098363Y-70933787D01*
X99098360Y-70933788D01*
X98937002Y-71016006D01*
X98790505Y-71122441D01*
X98790500Y-71122445D01*
X98662445Y-71250500D01*
X98662441Y-71250505D01*
X98556006Y-71397002D01*
X98473788Y-71558360D01*
X98473787Y-71558363D01*
X98417829Y-71730589D01*
X98392473Y-71890678D01*
X98362544Y-71953813D01*
X98303232Y-71990744D01*
X98233369Y-71989746D01*
X98175137Y-71951136D01*
X98147527Y-71890678D01*
X98133740Y-71803639D01*
X98122171Y-71730591D01*
X98079708Y-71599901D01*
X98066212Y-71558363D01*
X98066211Y-71558360D01*
X98027191Y-71481781D01*
X97983996Y-71397006D01*
X97970396Y-71378287D01*
X97877558Y-71250505D01*
X97877554Y-71250500D01*
X97749499Y-71122445D01*
X97749494Y-71122441D01*
X97602997Y-71016006D01*
X97602996Y-71016005D01*
X97602994Y-71016004D01*
X97526906Y-70977235D01*
X97441639Y-70933788D01*
X97441636Y-70933787D01*
X97269410Y-70877829D01*
X97090551Y-70849500D01*
X97090546Y-70849500D01*
X96909454Y-70849500D01*
X96909449Y-70849500D01*
X96730589Y-70877829D01*
X96558363Y-70933787D01*
X96558360Y-70933788D01*
X96397002Y-71016006D01*
X96250505Y-71122441D01*
X96250500Y-71122445D01*
X96122445Y-71250500D01*
X96122441Y-71250505D01*
X96016006Y-71397002D01*
X95933788Y-71558360D01*
X95933787Y-71558363D01*
X95877829Y-71730589D01*
X95856972Y-71862271D01*
X95827042Y-71925405D01*
X95767731Y-71962336D01*
X95697868Y-71961338D01*
X95639636Y-71922728D01*
X95611522Y-71858764D01*
X95610499Y-71842872D01*
X95610499Y-71105143D01*
X95610499Y-71105136D01*
X95610497Y-71105117D01*
X95607586Y-71080012D01*
X95607585Y-71080010D01*
X95607585Y-71080009D01*
X95562206Y-70977235D01*
X95482765Y-70897794D01*
X95482763Y-70897793D01*
X95379992Y-70852415D01*
X95354865Y-70849500D01*
X93565143Y-70849500D01*
X93565117Y-70849502D01*
X93540012Y-70852413D01*
X93540008Y-70852415D01*
X93437235Y-70897793D01*
X93357794Y-70977234D01*
X93312415Y-71080006D01*
X93312415Y-71080008D01*
X93309500Y-71105131D01*
X68627902Y-71105131D01*
X68656764Y-68420943D01*
X99259500Y-68420943D01*
X99259500Y-68579056D01*
X99300423Y-68731783D01*
X99300426Y-68731790D01*
X99379475Y-68868709D01*
X99379479Y-68868714D01*
X99379480Y-68868716D01*
X99491284Y-68980520D01*
X99491286Y-68980521D01*
X99491290Y-68980524D01*
X99612494Y-69050500D01*
X99628216Y-69059577D01*
X99780943Y-69100500D01*
X99780945Y-69100500D01*
X99939055Y-69100500D01*
X99939057Y-69100500D01*
X100091784Y-69059577D01*
X100091785Y-69059576D01*
X100099635Y-69057473D01*
X100099820Y-69058165D01*
X100138363Y-69050500D01*
X100881637Y-69050500D01*
X100920179Y-69058165D01*
X100920365Y-69057473D01*
X100928214Y-69059576D01*
X100928216Y-69059577D01*
X101080943Y-69100500D01*
X101080945Y-69100500D01*
X101239055Y-69100500D01*
X101239057Y-69100500D01*
X101391784Y-69059577D01*
X101528716Y-68980520D01*
X101640520Y-68868716D01*
X101719577Y-68731784D01*
X101760500Y-68579057D01*
X101760500Y-68420943D01*
X101719577Y-68268216D01*
X101719573Y-68268209D01*
X101640524Y-68131290D01*
X101640518Y-68131282D01*
X101528717Y-68019481D01*
X101528709Y-68019475D01*
X101391790Y-67940426D01*
X101391786Y-67940424D01*
X101391784Y-67940423D01*
X101239057Y-67899500D01*
X101080943Y-67899500D01*
X100928216Y-67940423D01*
X100928214Y-67940423D01*
X100920365Y-67942527D01*
X100920179Y-67941834D01*
X100881637Y-67949500D01*
X100138363Y-67949500D01*
X100099820Y-67941834D01*
X100099635Y-67942527D01*
X100091785Y-67940423D01*
X100091784Y-67940423D01*
X99939057Y-67899500D01*
X99780943Y-67899500D01*
X99628216Y-67940423D01*
X99628209Y-67940426D01*
X99491290Y-68019475D01*
X99491282Y-68019481D01*
X99379481Y-68131282D01*
X99379475Y-68131290D01*
X99300426Y-68268209D01*
X99300423Y-68268216D01*
X99259500Y-68420943D01*
X68656764Y-68420943D01*
X68720441Y-62498992D01*
X113899500Y-62498992D01*
X113899500Y-62701007D01*
X113938907Y-62899119D01*
X113938909Y-62899127D01*
X114016212Y-63085752D01*
X114016217Y-63085762D01*
X114128441Y-63253718D01*
X114271281Y-63396558D01*
X114439237Y-63508782D01*
X114439241Y-63508784D01*
X114439244Y-63508786D01*
X114625873Y-63586091D01*
X114823992Y-63625499D01*
X114823996Y-63625500D01*
X114823997Y-63625500D01*
X115576004Y-63625500D01*
X115576005Y-63625499D01*
X115774127Y-63586091D01*
X115960756Y-63508786D01*
X116128718Y-63396558D01*
X116271558Y-63253718D01*
X116383786Y-63085756D01*
X116461091Y-62899127D01*
X116500500Y-62701003D01*
X116500500Y-62663766D01*
X117799500Y-62663766D01*
X117799500Y-62836233D01*
X117833143Y-63005366D01*
X117833146Y-63005378D01*
X117899138Y-63164698D01*
X117899145Y-63164711D01*
X117994954Y-63308098D01*
X117994957Y-63308102D01*
X118116897Y-63430042D01*
X118116901Y-63430045D01*
X118260288Y-63525854D01*
X118260301Y-63525861D01*
X118405708Y-63586090D01*
X118419626Y-63591855D01*
X118588766Y-63625499D01*
X118588769Y-63625500D01*
X118588771Y-63625500D01*
X119411231Y-63625500D01*
X119411232Y-63625499D01*
X119580374Y-63591855D01*
X119739705Y-63525858D01*
X119883099Y-63430045D01*
X120005045Y-63308099D01*
X120100858Y-63164705D01*
X120166855Y-63005374D01*
X120200500Y-62836229D01*
X120200500Y-62663771D01*
X120200500Y-62663768D01*
X120200499Y-62663766D01*
X120166856Y-62494633D01*
X120166855Y-62494626D01*
X120166853Y-62494621D01*
X120100861Y-62335301D01*
X120100854Y-62335288D01*
X120005045Y-62191901D01*
X120005042Y-62191897D01*
X119883102Y-62069957D01*
X119883098Y-62069954D01*
X119739711Y-61974145D01*
X119739698Y-61974138D01*
X119580378Y-61908146D01*
X119580366Y-61908143D01*
X119411232Y-61874500D01*
X119411229Y-61874500D01*
X118588771Y-61874500D01*
X118588768Y-61874500D01*
X118419633Y-61908143D01*
X118419621Y-61908146D01*
X118260301Y-61974138D01*
X118260288Y-61974145D01*
X118116901Y-62069954D01*
X118116897Y-62069957D01*
X117994957Y-62191897D01*
X117994954Y-62191901D01*
X117899145Y-62335288D01*
X117899138Y-62335301D01*
X117833146Y-62494621D01*
X117833143Y-62494633D01*
X117799500Y-62663766D01*
X116500500Y-62663766D01*
X116500500Y-62498997D01*
X116461091Y-62300873D01*
X116418354Y-62197697D01*
X116410885Y-62128227D01*
X116442160Y-62065748D01*
X116485457Y-62035685D01*
X116581811Y-61995775D01*
X116696542Y-61919114D01*
X116794114Y-61821542D01*
X116870775Y-61706811D01*
X116877236Y-61691214D01*
X116923578Y-61579332D01*
X116923580Y-61579328D01*
X116937975Y-61506959D01*
X116950500Y-61443995D01*
X116950500Y-61306004D01*
X116923581Y-61170677D01*
X116923580Y-61170676D01*
X116923580Y-61170672D01*
X116923578Y-61170667D01*
X116870778Y-61043195D01*
X116870771Y-61043182D01*
X116794114Y-60928458D01*
X116794111Y-60928454D01*
X116696545Y-60830888D01*
X116696541Y-60830885D01*
X116581817Y-60754228D01*
X116581804Y-60754221D01*
X116454332Y-60701421D01*
X116454322Y-60701418D01*
X116318995Y-60674500D01*
X116318993Y-60674500D01*
X116181007Y-60674500D01*
X116181005Y-60674500D01*
X116045677Y-60701418D01*
X116045667Y-60701421D01*
X115918195Y-60754221D01*
X115918182Y-60754228D01*
X115803458Y-60830885D01*
X115803454Y-60830888D01*
X115705888Y-60928454D01*
X115705885Y-60928458D01*
X115629228Y-61043182D01*
X115629221Y-61043195D01*
X115576421Y-61170667D01*
X115576418Y-61170677D01*
X115549500Y-61306004D01*
X115549500Y-61450085D01*
X115546710Y-61450085D01*
X115535942Y-61506959D01*
X115487892Y-61557683D01*
X115425541Y-61574500D01*
X114823992Y-61574500D01*
X114625880Y-61613907D01*
X114625872Y-61613909D01*
X114439247Y-61691212D01*
X114439237Y-61691217D01*
X114271281Y-61803441D01*
X114128441Y-61946281D01*
X114016217Y-62114237D01*
X114016212Y-62114247D01*
X113938909Y-62300872D01*
X113938907Y-62300880D01*
X113899500Y-62498992D01*
X68720441Y-62498992D01*
X68805710Y-54568995D01*
X81299499Y-54568995D01*
X81326418Y-54704322D01*
X81326421Y-54704332D01*
X81379221Y-54831804D01*
X81379228Y-54831817D01*
X81455885Y-54946541D01*
X81455888Y-54946545D01*
X81553454Y-55044111D01*
X81553458Y-55044114D01*
X81668182Y-55120771D01*
X81668195Y-55120778D01*
X81795667Y-55173578D01*
X81795672Y-55173580D01*
X81795676Y-55173580D01*
X81795677Y-55173581D01*
X81931004Y-55200500D01*
X81931007Y-55200500D01*
X82068995Y-55200500D01*
X82160041Y-55182389D01*
X82204328Y-55173580D01*
X82331811Y-55120775D01*
X82439242Y-55048992D01*
X113899500Y-55048992D01*
X113899500Y-55251007D01*
X113938907Y-55449119D01*
X113938909Y-55449127D01*
X114016212Y-55635752D01*
X114016217Y-55635762D01*
X114128441Y-55803718D01*
X114271281Y-55946558D01*
X114439237Y-56058782D01*
X114439241Y-56058784D01*
X114439244Y-56058786D01*
X114625873Y-56136091D01*
X114799700Y-56170667D01*
X114823992Y-56175499D01*
X114823996Y-56175500D01*
X114823997Y-56175500D01*
X115425541Y-56175500D01*
X115492580Y-56195185D01*
X115538335Y-56247989D01*
X115546980Y-56299915D01*
X115549500Y-56299915D01*
X115549500Y-56306007D01*
X115549500Y-56443993D01*
X115549500Y-56443995D01*
X115549499Y-56443995D01*
X115576418Y-56579322D01*
X115576421Y-56579332D01*
X115629221Y-56706804D01*
X115629228Y-56706817D01*
X115705885Y-56821541D01*
X115705888Y-56821545D01*
X115803454Y-56919111D01*
X115803458Y-56919114D01*
X115918182Y-56995771D01*
X115918195Y-56995778D01*
X116045667Y-57048578D01*
X116045672Y-57048580D01*
X116045676Y-57048580D01*
X116045677Y-57048581D01*
X116181004Y-57075500D01*
X116181007Y-57075500D01*
X116318995Y-57075500D01*
X116410041Y-57057389D01*
X116454328Y-57048580D01*
X116581811Y-56995775D01*
X116696542Y-56919114D01*
X116794114Y-56821542D01*
X116870775Y-56706811D01*
X116923580Y-56579328D01*
X116950500Y-56443993D01*
X116950500Y-56306007D01*
X116950500Y-56306004D01*
X116923581Y-56170677D01*
X116923580Y-56170676D01*
X116923580Y-56170672D01*
X116877236Y-56058787D01*
X116870778Y-56043195D01*
X116870771Y-56043182D01*
X116794114Y-55928458D01*
X116794111Y-55928454D01*
X116696545Y-55830888D01*
X116696541Y-55830885D01*
X116581817Y-55754228D01*
X116581804Y-55754221D01*
X116485462Y-55714316D01*
X116431058Y-55670476D01*
X116408993Y-55604182D01*
X116418351Y-55552307D01*
X116461091Y-55449127D01*
X116500500Y-55251003D01*
X116500500Y-55048997D01*
X116481848Y-54955224D01*
X116477203Y-54931870D01*
X116473602Y-54913766D01*
X117799500Y-54913766D01*
X117799500Y-55086233D01*
X117833143Y-55255366D01*
X117833146Y-55255378D01*
X117899138Y-55414698D01*
X117899145Y-55414711D01*
X117994954Y-55558098D01*
X117994957Y-55558102D01*
X118116897Y-55680042D01*
X118116901Y-55680045D01*
X118260288Y-55775854D01*
X118260301Y-55775861D01*
X118393142Y-55830885D01*
X118419626Y-55841855D01*
X118588766Y-55875499D01*
X118588769Y-55875500D01*
X118588771Y-55875500D01*
X119411231Y-55875500D01*
X119411232Y-55875499D01*
X119580374Y-55841855D01*
X119739705Y-55775858D01*
X119883099Y-55680045D01*
X120005045Y-55558099D01*
X120100858Y-55414705D01*
X120166855Y-55255374D01*
X120200500Y-55086229D01*
X120200500Y-54913771D01*
X120200500Y-54913768D01*
X120200499Y-54913766D01*
X120187989Y-54850873D01*
X120166855Y-54744626D01*
X120133557Y-54664237D01*
X120100861Y-54585301D01*
X120100854Y-54585288D01*
X120005045Y-54441901D01*
X120005042Y-54441897D01*
X119883102Y-54319957D01*
X119883098Y-54319954D01*
X119739711Y-54224145D01*
X119739698Y-54224138D01*
X119580378Y-54158146D01*
X119580366Y-54158143D01*
X119411232Y-54124500D01*
X119411229Y-54124500D01*
X118588771Y-54124500D01*
X118588768Y-54124500D01*
X118419633Y-54158143D01*
X118419621Y-54158146D01*
X118260301Y-54224138D01*
X118260288Y-54224145D01*
X118116901Y-54319954D01*
X118116897Y-54319957D01*
X117994957Y-54441897D01*
X117994954Y-54441901D01*
X117899145Y-54585288D01*
X117899138Y-54585301D01*
X117833146Y-54744621D01*
X117833143Y-54744633D01*
X117799500Y-54913766D01*
X116473602Y-54913766D01*
X116461092Y-54850880D01*
X116461091Y-54850873D01*
X116383786Y-54664244D01*
X116383784Y-54664241D01*
X116383782Y-54664237D01*
X116271558Y-54496281D01*
X116128718Y-54353441D01*
X115960762Y-54241217D01*
X115960752Y-54241212D01*
X115774127Y-54163909D01*
X115774119Y-54163907D01*
X115576007Y-54124500D01*
X115576003Y-54124500D01*
X114823997Y-54124500D01*
X114823992Y-54124500D01*
X114625880Y-54163907D01*
X114625872Y-54163909D01*
X114439247Y-54241212D01*
X114439237Y-54241217D01*
X114271281Y-54353441D01*
X114128441Y-54496281D01*
X114016217Y-54664237D01*
X114016212Y-54664247D01*
X113938909Y-54850872D01*
X113938907Y-54850880D01*
X113899500Y-55048992D01*
X82439242Y-55048992D01*
X82446542Y-55044114D01*
X82446545Y-55044111D01*
X82535433Y-54955224D01*
X82544111Y-54946545D01*
X82544114Y-54946542D01*
X82620775Y-54831811D01*
X82673580Y-54704328D01*
X82697256Y-54585301D01*
X82700500Y-54568995D01*
X82700500Y-54431004D01*
X82673581Y-54295677D01*
X82673580Y-54295676D01*
X82673580Y-54295672D01*
X82643953Y-54224145D01*
X82620778Y-54168195D01*
X82620771Y-54168182D01*
X82544114Y-54053458D01*
X82544111Y-54053454D01*
X82446545Y-53955888D01*
X82446541Y-53955885D01*
X82331817Y-53879228D01*
X82331804Y-53879221D01*
X82204332Y-53826421D01*
X82204322Y-53826418D01*
X82068995Y-53799500D01*
X82068993Y-53799500D01*
X81931007Y-53799500D01*
X81931005Y-53799500D01*
X81795677Y-53826418D01*
X81795667Y-53826421D01*
X81668195Y-53879221D01*
X81668182Y-53879228D01*
X81553458Y-53955885D01*
X81553454Y-53955888D01*
X81455888Y-54053454D01*
X81455885Y-54053458D01*
X81379228Y-54168182D01*
X81379221Y-54168195D01*
X81326421Y-54295667D01*
X81326418Y-54295677D01*
X81299500Y-54431004D01*
X81299500Y-54431007D01*
X81299500Y-54568993D01*
X81299500Y-54568995D01*
X81299499Y-54568995D01*
X68805710Y-54568995D01*
X68837968Y-51568995D01*
X81299499Y-51568995D01*
X81326418Y-51704322D01*
X81326421Y-51704332D01*
X81379221Y-51831804D01*
X81379228Y-51831817D01*
X81455885Y-51946541D01*
X81455888Y-51946545D01*
X81553454Y-52044111D01*
X81553458Y-52044114D01*
X81668182Y-52120771D01*
X81668195Y-52120778D01*
X81795667Y-52173578D01*
X81795672Y-52173580D01*
X81795676Y-52173580D01*
X81795677Y-52173581D01*
X81931004Y-52200500D01*
X81931007Y-52200500D01*
X82068995Y-52200500D01*
X82160041Y-52182389D01*
X82204328Y-52173580D01*
X82331811Y-52120775D01*
X82446542Y-52044114D01*
X82544114Y-51946542D01*
X82620775Y-51831811D01*
X82673580Y-51704328D01*
X82700500Y-51568993D01*
X82700500Y-51431007D01*
X82700500Y-51431004D01*
X82673581Y-51295677D01*
X82673580Y-51295676D01*
X82673580Y-51295672D01*
X82673578Y-51295667D01*
X82620778Y-51168195D01*
X82620771Y-51168182D01*
X82544114Y-51053458D01*
X82544111Y-51053454D01*
X82446545Y-50955888D01*
X82446541Y-50955885D01*
X82331817Y-50879228D01*
X82331804Y-50879221D01*
X82204332Y-50826421D01*
X82204322Y-50826418D01*
X82068995Y-50799500D01*
X82068993Y-50799500D01*
X81931007Y-50799500D01*
X81931005Y-50799500D01*
X81795677Y-50826418D01*
X81795667Y-50826421D01*
X81668195Y-50879221D01*
X81668182Y-50879228D01*
X81553458Y-50955885D01*
X81553454Y-50955888D01*
X81455888Y-51053454D01*
X81455885Y-51053458D01*
X81379228Y-51168182D01*
X81379221Y-51168195D01*
X81326421Y-51295667D01*
X81326418Y-51295677D01*
X81299500Y-51431004D01*
X81299500Y-51431007D01*
X81299500Y-51568993D01*
X81299500Y-51568995D01*
X81299499Y-51568995D01*
X68837968Y-51568995D01*
X68887467Y-46965609D01*
X68888239Y-46893753D01*
X88340000Y-46893753D01*
X88340000Y-47106246D01*
X88373242Y-47316127D01*
X88373242Y-47316130D01*
X88438904Y-47518217D01*
X88535375Y-47707550D01*
X88574728Y-47761716D01*
X89207037Y-47129408D01*
X89224075Y-47192993D01*
X89289901Y-47307007D01*
X89382993Y-47400099D01*
X89497007Y-47465925D01*
X89560590Y-47482962D01*
X88928282Y-48115269D01*
X88928282Y-48115270D01*
X88982449Y-48154624D01*
X89171782Y-48251095D01*
X89373870Y-48316757D01*
X89583754Y-48350000D01*
X89796246Y-48350000D01*
X90006127Y-48316757D01*
X90006130Y-48316757D01*
X90208217Y-48251095D01*
X90397554Y-48154622D01*
X90451716Y-48115270D01*
X90451717Y-48115270D01*
X89819408Y-47482962D01*
X89882993Y-47465925D01*
X89997007Y-47400099D01*
X90090099Y-47307007D01*
X90155925Y-47192993D01*
X90172962Y-47129408D01*
X90805270Y-47761717D01*
X90805270Y-47761716D01*
X90844622Y-47707554D01*
X90941095Y-47518217D01*
X90950492Y-47489295D01*
X90989928Y-47431618D01*
X91054286Y-47404419D01*
X91123133Y-47416331D01*
X91174610Y-47463574D01*
X91178908Y-47471314D01*
X91246004Y-47602995D01*
X91352441Y-47749494D01*
X91352445Y-47749499D01*
X91480500Y-47877554D01*
X91480505Y-47877558D01*
X91608287Y-47970396D01*
X91627006Y-47983996D01*
X91703094Y-48022765D01*
X91788360Y-48066211D01*
X91788363Y-48066212D01*
X91874476Y-48094191D01*
X91960591Y-48122171D01*
X92043429Y-48135291D01*
X92139449Y-48150500D01*
X92139454Y-48150500D01*
X92320551Y-48150500D01*
X92407259Y-48136765D01*
X92499409Y-48122171D01*
X92671639Y-48066211D01*
X92832994Y-47983996D01*
X92979501Y-47877553D01*
X93107553Y-47749501D01*
X93213996Y-47602994D01*
X93296211Y-47441639D01*
X93352171Y-47269409D01*
X93373027Y-47137729D01*
X93377527Y-47109321D01*
X93407456Y-47046186D01*
X93466768Y-47009255D01*
X93536630Y-47010253D01*
X93594863Y-47048863D01*
X93622473Y-47109321D01*
X93647829Y-47269410D01*
X93703787Y-47441636D01*
X93703788Y-47441639D01*
X93786006Y-47602997D01*
X93892441Y-47749494D01*
X93892445Y-47749499D01*
X94020500Y-47877554D01*
X94020505Y-47877558D01*
X94148287Y-47970396D01*
X94167006Y-47983996D01*
X94243094Y-48022765D01*
X94328360Y-48066211D01*
X94328363Y-48066212D01*
X94414476Y-48094191D01*
X94500591Y-48122171D01*
X94583429Y-48135291D01*
X94679449Y-48150500D01*
X94679454Y-48150500D01*
X94860551Y-48150500D01*
X94947259Y-48136765D01*
X95039409Y-48122171D01*
X95211639Y-48066211D01*
X95372994Y-47983996D01*
X95519501Y-47877553D01*
X95647553Y-47749501D01*
X95753996Y-47602994D01*
X95836211Y-47441639D01*
X95892171Y-47269409D01*
X95913027Y-47137729D01*
X95942956Y-47074595D01*
X96002267Y-47037663D01*
X96072130Y-47038661D01*
X96130363Y-47077271D01*
X96158477Y-47141234D01*
X96159500Y-47157127D01*
X96159500Y-47894856D01*
X96159502Y-47894882D01*
X96162413Y-47919987D01*
X96162415Y-47919991D01*
X96207793Y-48022764D01*
X96207794Y-48022765D01*
X96287235Y-48102206D01*
X96390009Y-48147585D01*
X96415135Y-48150500D01*
X98204864Y-48150499D01*
X98204879Y-48150497D01*
X98204882Y-48150497D01*
X98229987Y-48147586D01*
X98229988Y-48147585D01*
X98229991Y-48147585D01*
X98332765Y-48102206D01*
X98412206Y-48022765D01*
X98457585Y-47919991D01*
X98460500Y-47894865D01*
X98460499Y-46893753D01*
X100150000Y-46893753D01*
X100150000Y-47106246D01*
X100183242Y-47316127D01*
X100183242Y-47316130D01*
X100248904Y-47518217D01*
X100345375Y-47707550D01*
X100384728Y-47761716D01*
X101017037Y-47129408D01*
X101034075Y-47192993D01*
X101099901Y-47307007D01*
X101192993Y-47400099D01*
X101307007Y-47465925D01*
X101370590Y-47482962D01*
X100738282Y-48115269D01*
X100738282Y-48115270D01*
X100792449Y-48154624D01*
X100981782Y-48251095D01*
X101183870Y-48316757D01*
X101393754Y-48350000D01*
X101606246Y-48350000D01*
X101816127Y-48316757D01*
X101816130Y-48316757D01*
X102018217Y-48251095D01*
X102207554Y-48154622D01*
X102261716Y-48115270D01*
X102261717Y-48115270D01*
X101629408Y-47482962D01*
X101692993Y-47465925D01*
X101807007Y-47400099D01*
X101900099Y-47307007D01*
X101965925Y-47192993D01*
X101982962Y-47129409D01*
X102615270Y-47761717D01*
X102615270Y-47761716D01*
X102654622Y-47707554D01*
X102751095Y-47518217D01*
X102760492Y-47489295D01*
X102799928Y-47431618D01*
X102864286Y-47404419D01*
X102933133Y-47416331D01*
X102984610Y-47463574D01*
X102988908Y-47471314D01*
X103056004Y-47602995D01*
X103162441Y-47749494D01*
X103162445Y-47749499D01*
X103290500Y-47877554D01*
X103290505Y-47877558D01*
X103418287Y-47970396D01*
X103437006Y-47983996D01*
X103513094Y-48022765D01*
X103598360Y-48066211D01*
X103598363Y-48066212D01*
X103684476Y-48094191D01*
X103770591Y-48122171D01*
X103853429Y-48135291D01*
X103949449Y-48150500D01*
X103949454Y-48150500D01*
X104130551Y-48150500D01*
X104217259Y-48136765D01*
X104309409Y-48122171D01*
X104481639Y-48066211D01*
X104642994Y-47983996D01*
X104789501Y-47877553D01*
X104917553Y-47749501D01*
X105023996Y-47602994D01*
X105106211Y-47441639D01*
X105162171Y-47269409D01*
X105183027Y-47137729D01*
X105187527Y-47109321D01*
X105217456Y-47046186D01*
X105276768Y-47009255D01*
X105346630Y-47010253D01*
X105404863Y-47048863D01*
X105432473Y-47109321D01*
X105457829Y-47269410D01*
X105513787Y-47441636D01*
X105513788Y-47441639D01*
X105596006Y-47602997D01*
X105702441Y-47749494D01*
X105702445Y-47749499D01*
X105830500Y-47877554D01*
X105830505Y-47877558D01*
X105958287Y-47970396D01*
X105977006Y-47983996D01*
X106053094Y-48022765D01*
X106138360Y-48066211D01*
X106138363Y-48066212D01*
X106224476Y-48094191D01*
X106310591Y-48122171D01*
X106393429Y-48135291D01*
X106489449Y-48150500D01*
X106489454Y-48150500D01*
X106670551Y-48150500D01*
X106757259Y-48136765D01*
X106849409Y-48122171D01*
X107021639Y-48066211D01*
X107182994Y-47983996D01*
X107329501Y-47877553D01*
X107457553Y-47749501D01*
X107563996Y-47602994D01*
X107646211Y-47441639D01*
X107702171Y-47269409D01*
X107723027Y-47137729D01*
X107752956Y-47074595D01*
X107812267Y-47037663D01*
X107882130Y-47038661D01*
X107940363Y-47077271D01*
X107968477Y-47141234D01*
X107969500Y-47157127D01*
X107969500Y-47894856D01*
X107969502Y-47894882D01*
X107972413Y-47919987D01*
X107972415Y-47919991D01*
X108017793Y-48022764D01*
X108017794Y-48022765D01*
X108097235Y-48102206D01*
X108200009Y-48147585D01*
X108225135Y-48150500D01*
X110014864Y-48150499D01*
X110014879Y-48150497D01*
X110014882Y-48150497D01*
X110039987Y-48147586D01*
X110039988Y-48147585D01*
X110039991Y-48147585D01*
X110142765Y-48102206D01*
X110222206Y-48022765D01*
X110267585Y-47919991D01*
X110270500Y-47894865D01*
X110270499Y-46105136D01*
X110270497Y-46105117D01*
X110267586Y-46080012D01*
X110267585Y-46080010D01*
X110267585Y-46080009D01*
X110222206Y-45977235D01*
X110142765Y-45897794D01*
X110142763Y-45897793D01*
X110039992Y-45852415D01*
X110014865Y-45849500D01*
X108225143Y-45849500D01*
X108225117Y-45849502D01*
X108200012Y-45852413D01*
X108200008Y-45852415D01*
X108097235Y-45897793D01*
X108017794Y-45977234D01*
X107972415Y-46080006D01*
X107972415Y-46080008D01*
X107969500Y-46105131D01*
X107969500Y-46842871D01*
X107949815Y-46909910D01*
X107897011Y-46955665D01*
X107827853Y-46965609D01*
X107764297Y-46936584D01*
X107726523Y-46877806D01*
X107723027Y-46862269D01*
X107714274Y-46807007D01*
X107702171Y-46730591D01*
X107646211Y-46558361D01*
X107646211Y-46558360D01*
X107607191Y-46481780D01*
X107563996Y-46397006D01*
X107550396Y-46378287D01*
X107457558Y-46250505D01*
X107457554Y-46250500D01*
X107329499Y-46122445D01*
X107329494Y-46122441D01*
X107182997Y-46016006D01*
X107182996Y-46016005D01*
X107182994Y-46016004D01*
X107106906Y-45977235D01*
X107021639Y-45933788D01*
X107021636Y-45933787D01*
X106849410Y-45877829D01*
X106670551Y-45849500D01*
X106670546Y-45849500D01*
X106489454Y-45849500D01*
X106489449Y-45849500D01*
X106310589Y-45877829D01*
X106138363Y-45933787D01*
X106138360Y-45933788D01*
X105977002Y-46016006D01*
X105830505Y-46122441D01*
X105830500Y-46122445D01*
X105702445Y-46250500D01*
X105702441Y-46250505D01*
X105596006Y-46397002D01*
X105513788Y-46558360D01*
X105513787Y-46558363D01*
X105457829Y-46730589D01*
X105432473Y-46890678D01*
X105402544Y-46953813D01*
X105343232Y-46990744D01*
X105273369Y-46989746D01*
X105215137Y-46951136D01*
X105187527Y-46890678D01*
X105173740Y-46803639D01*
X105162171Y-46730591D01*
X105106211Y-46558361D01*
X105106211Y-46558360D01*
X105067191Y-46481780D01*
X105023996Y-46397006D01*
X105010396Y-46378287D01*
X104917558Y-46250505D01*
X104917554Y-46250500D01*
X104789499Y-46122445D01*
X104789494Y-46122441D01*
X104642997Y-46016006D01*
X104642996Y-46016005D01*
X104642994Y-46016004D01*
X104566906Y-45977235D01*
X104481639Y-45933788D01*
X104481636Y-45933787D01*
X104309410Y-45877829D01*
X104130551Y-45849500D01*
X104130546Y-45849500D01*
X103949454Y-45849500D01*
X103949449Y-45849500D01*
X103770589Y-45877829D01*
X103598363Y-45933787D01*
X103598360Y-45933788D01*
X103437002Y-46016006D01*
X103290505Y-46122441D01*
X103290500Y-46122445D01*
X103162445Y-46250500D01*
X103162441Y-46250505D01*
X103056004Y-46397004D01*
X102988908Y-46528685D01*
X102940933Y-46579480D01*
X102873112Y-46596275D01*
X102806977Y-46573737D01*
X102763527Y-46519021D01*
X102760492Y-46510705D01*
X102751094Y-46481780D01*
X102654624Y-46292449D01*
X102615270Y-46238282D01*
X102615269Y-46238282D01*
X101982962Y-46870590D01*
X101965925Y-46807007D01*
X101900099Y-46692993D01*
X101807007Y-46599901D01*
X101692993Y-46534075D01*
X101629409Y-46517037D01*
X102261716Y-45884728D01*
X102207550Y-45845375D01*
X102018217Y-45748904D01*
X101816129Y-45683242D01*
X101606246Y-45650000D01*
X101393754Y-45650000D01*
X101183872Y-45683242D01*
X101183869Y-45683242D01*
X100981782Y-45748904D01*
X100792439Y-45845380D01*
X100738282Y-45884727D01*
X100738282Y-45884728D01*
X101370591Y-46517037D01*
X101307007Y-46534075D01*
X101192993Y-46599901D01*
X101099901Y-46692993D01*
X101034075Y-46807007D01*
X101017037Y-46870591D01*
X100384728Y-46238282D01*
X100384727Y-46238282D01*
X100345380Y-46292439D01*
X100248904Y-46481782D01*
X100183242Y-46683869D01*
X100183242Y-46683872D01*
X100150000Y-46893753D01*
X98460499Y-46893753D01*
X98460499Y-46105136D01*
X98460497Y-46105117D01*
X98457586Y-46080012D01*
X98457585Y-46080011D01*
X98457585Y-46080009D01*
X98412206Y-45977235D01*
X98332765Y-45897794D01*
X98332763Y-45897793D01*
X98229992Y-45852415D01*
X98204865Y-45849500D01*
X96415143Y-45849500D01*
X96415117Y-45849502D01*
X96390012Y-45852413D01*
X96390008Y-45852415D01*
X96287235Y-45897793D01*
X96207794Y-45977234D01*
X96162415Y-46080006D01*
X96162415Y-46080008D01*
X96159500Y-46105131D01*
X96159500Y-46842871D01*
X96139815Y-46909910D01*
X96087011Y-46955665D01*
X96017853Y-46965609D01*
X95954297Y-46936584D01*
X95916523Y-46877806D01*
X95913027Y-46862269D01*
X95904274Y-46807007D01*
X95892171Y-46730591D01*
X95836211Y-46558361D01*
X95836211Y-46558360D01*
X95797191Y-46481780D01*
X95753996Y-46397006D01*
X95740396Y-46378287D01*
X95647558Y-46250505D01*
X95647554Y-46250500D01*
X95519499Y-46122445D01*
X95519494Y-46122441D01*
X95372997Y-46016006D01*
X95372996Y-46016005D01*
X95372994Y-46016004D01*
X95296906Y-45977235D01*
X95211639Y-45933788D01*
X95211636Y-45933787D01*
X95039410Y-45877829D01*
X94860551Y-45849500D01*
X94860546Y-45849500D01*
X94679454Y-45849500D01*
X94679449Y-45849500D01*
X94500589Y-45877829D01*
X94328363Y-45933787D01*
X94328360Y-45933788D01*
X94167002Y-46016006D01*
X94020505Y-46122441D01*
X94020500Y-46122445D01*
X93892445Y-46250500D01*
X93892441Y-46250505D01*
X93786006Y-46397002D01*
X93703788Y-46558360D01*
X93703787Y-46558363D01*
X93647829Y-46730589D01*
X93622473Y-46890678D01*
X93592544Y-46953813D01*
X93533232Y-46990744D01*
X93463369Y-46989746D01*
X93405137Y-46951136D01*
X93377527Y-46890678D01*
X93363740Y-46803639D01*
X93352171Y-46730591D01*
X93296211Y-46558361D01*
X93296211Y-46558360D01*
X93257191Y-46481780D01*
X93213996Y-46397006D01*
X93200396Y-46378287D01*
X93107558Y-46250505D01*
X93107554Y-46250500D01*
X92979499Y-46122445D01*
X92979494Y-46122441D01*
X92832997Y-46016006D01*
X92832996Y-46016005D01*
X92832994Y-46016004D01*
X92756906Y-45977235D01*
X92671639Y-45933788D01*
X92671636Y-45933787D01*
X92499410Y-45877829D01*
X92320551Y-45849500D01*
X92320546Y-45849500D01*
X92139454Y-45849500D01*
X92139449Y-45849500D01*
X91960589Y-45877829D01*
X91788363Y-45933787D01*
X91788360Y-45933788D01*
X91627002Y-46016006D01*
X91480505Y-46122441D01*
X91480500Y-46122445D01*
X91352445Y-46250500D01*
X91352441Y-46250505D01*
X91246004Y-46397004D01*
X91178908Y-46528685D01*
X91130933Y-46579480D01*
X91063112Y-46596275D01*
X90996977Y-46573737D01*
X90953527Y-46519021D01*
X90950492Y-46510705D01*
X90941094Y-46481780D01*
X90844624Y-46292449D01*
X90805270Y-46238282D01*
X90805269Y-46238282D01*
X90172962Y-46870590D01*
X90155925Y-46807007D01*
X90090099Y-46692993D01*
X89997007Y-46599901D01*
X89882993Y-46534075D01*
X89819409Y-46517037D01*
X90451716Y-45884728D01*
X90397550Y-45845375D01*
X90208217Y-45748904D01*
X90006129Y-45683242D01*
X89796246Y-45650000D01*
X89583754Y-45650000D01*
X89373872Y-45683242D01*
X89373869Y-45683242D01*
X89171782Y-45748904D01*
X88982439Y-45845380D01*
X88928282Y-45884727D01*
X88928282Y-45884728D01*
X89560591Y-46517037D01*
X89497007Y-46534075D01*
X89382993Y-46599901D01*
X89289901Y-46692993D01*
X89224075Y-46807007D01*
X89207037Y-46870591D01*
X88574728Y-46238282D01*
X88574727Y-46238282D01*
X88535380Y-46292439D01*
X88438904Y-46481782D01*
X88373242Y-46683869D01*
X88373242Y-46683872D01*
X88340000Y-46893753D01*
X68888239Y-46893753D01*
X68888306Y-46887548D01*
X68898595Y-45930654D01*
X68915944Y-44317246D01*
X68931251Y-42893713D01*
X75649500Y-42893713D01*
X75649500Y-43106286D01*
X75682753Y-43316239D01*
X75748444Y-43518414D01*
X75844951Y-43707820D01*
X75969890Y-43879786D01*
X76120213Y-44030109D01*
X76292179Y-44155048D01*
X76292181Y-44155049D01*
X76292184Y-44155051D01*
X76481588Y-44251557D01*
X76683757Y-44317246D01*
X76893713Y-44350500D01*
X76893714Y-44350500D01*
X77106286Y-44350500D01*
X77106287Y-44350500D01*
X77316243Y-44317246D01*
X77518412Y-44251557D01*
X77707816Y-44155051D01*
X77729789Y-44139086D01*
X77879786Y-44030109D01*
X77879788Y-44030106D01*
X77879792Y-44030104D01*
X78030104Y-43879792D01*
X78030106Y-43879788D01*
X78030109Y-43879786D01*
X78155048Y-43707820D01*
X78155047Y-43707820D01*
X78155051Y-43707816D01*
X78251557Y-43518412D01*
X78317246Y-43316243D01*
X78350500Y-43106287D01*
X78350500Y-42893713D01*
X117649500Y-42893713D01*
X117649500Y-43106286D01*
X117682753Y-43316239D01*
X117748444Y-43518414D01*
X117844951Y-43707820D01*
X117969890Y-43879786D01*
X118120213Y-44030109D01*
X118292179Y-44155048D01*
X118292181Y-44155049D01*
X118292184Y-44155051D01*
X118481588Y-44251557D01*
X118683757Y-44317246D01*
X118893713Y-44350500D01*
X118893714Y-44350500D01*
X119106286Y-44350500D01*
X119106287Y-44350500D01*
X119316243Y-44317246D01*
X119518412Y-44251557D01*
X119707816Y-44155051D01*
X119729789Y-44139086D01*
X119879786Y-44030109D01*
X119879788Y-44030106D01*
X119879792Y-44030104D01*
X120030104Y-43879792D01*
X120030106Y-43879788D01*
X120030109Y-43879786D01*
X120155048Y-43707820D01*
X120155047Y-43707820D01*
X120155051Y-43707816D01*
X120251557Y-43518412D01*
X120317246Y-43316243D01*
X120350500Y-43106287D01*
X120350500Y-42893713D01*
X120317246Y-42683757D01*
X120251557Y-42481588D01*
X120155051Y-42292184D01*
X120155049Y-42292181D01*
X120155048Y-42292179D01*
X120030109Y-42120213D01*
X119879786Y-41969890D01*
X119707820Y-41844951D01*
X119518414Y-41748444D01*
X119518413Y-41748443D01*
X119518412Y-41748443D01*
X119316243Y-41682754D01*
X119316241Y-41682753D01*
X119316240Y-41682753D01*
X119154957Y-41657208D01*
X119106287Y-41649500D01*
X118893713Y-41649500D01*
X118845042Y-41657208D01*
X118683760Y-41682753D01*
X118481585Y-41748444D01*
X118292179Y-41844951D01*
X118120213Y-41969890D01*
X117969890Y-42120213D01*
X117844951Y-42292179D01*
X117748444Y-42481585D01*
X117682753Y-42683760D01*
X117649500Y-42893713D01*
X78350500Y-42893713D01*
X78317246Y-42683757D01*
X78251557Y-42481588D01*
X78155051Y-42292184D01*
X78155049Y-42292181D01*
X78155048Y-42292179D01*
X78030109Y-42120213D01*
X77879786Y-41969890D01*
X77707820Y-41844951D01*
X77518414Y-41748444D01*
X77518413Y-41748443D01*
X77518412Y-41748443D01*
X77316243Y-41682754D01*
X77316241Y-41682753D01*
X77316240Y-41682753D01*
X77154957Y-41657208D01*
X77106287Y-41649500D01*
X76893713Y-41649500D01*
X76845042Y-41657208D01*
X76683760Y-41682753D01*
X76481585Y-41748444D01*
X76292179Y-41844951D01*
X76120213Y-41969890D01*
X75969890Y-42120213D01*
X75844951Y-42292179D01*
X75748444Y-42481585D01*
X75682753Y-42683760D01*
X75649500Y-42893713D01*
X68931251Y-42893713D01*
X68998681Y-36622667D01*
X69019085Y-36555843D01*
X69072378Y-36510658D01*
X69122674Y-36500000D01*
X126876000Y-36500000D01*
X126943039Y-36519685D01*
G37*
%TD.AperFunction*%
%TD*%
M02*
