%TF.GenerationSoftware,KiCad,Pcbnew,9.0.7*%
%TF.CreationDate,2026-04-28T11:46:31-06:00*%
%TF.ProjectId,PhilsLabTotorial,5068696c-734c-4616-9254-6f746f726961,rev?*%
%TF.SameCoordinates,Original*%
%TF.FileFunction,Paste,Top*%
%TF.FilePolarity,Positive*%
%FSLAX46Y46*%
G04 Gerber Fmt 4.6, Leading zero omitted, Abs format (unit mm)*
G04 Created by KiCad (PCBNEW 9.0.7) date 2026-04-28 11:46:31*
%MOMM*%
%LPD*%
G01*
G04 APERTURE LIST*
G04 Aperture macros list*
%AMRoundRect*
0 Rectangle with rounded corners*
0 $1 Rounding radius*
0 $2 $3 $4 $5 $6 $7 $8 $9 X,Y pos of 4 corners*
0 Add a 4 corners polygon primitive as box body*
4,1,4,$2,$3,$4,$5,$6,$7,$8,$9,$2,$3,0*
0 Add four circle primitives for the rounded corners*
1,1,$1+$1,$2,$3*
1,1,$1+$1,$4,$5*
1,1,$1+$1,$6,$7*
1,1,$1+$1,$8,$9*
0 Add four rect primitives between the rounded corners*
20,1,$1+$1,$2,$3,$4,$5,0*
20,1,$1+$1,$4,$5,$6,$7,0*
20,1,$1+$1,$6,$7,$8,$9,0*
20,1,$1+$1,$8,$9,$2,$3,0*%
G04 Aperture macros list end*
%ADD10RoundRect,0.218750X-0.256250X0.218750X-0.256250X-0.218750X0.256250X-0.218750X0.256250X0.218750X0*%
%ADD11RoundRect,0.140000X0.170000X-0.140000X0.170000X0.140000X-0.170000X0.140000X-0.170000X-0.140000X0*%
%ADD12RoundRect,0.225000X-0.225000X-0.250000X0.225000X-0.250000X0.225000X0.250000X-0.225000X0.250000X0*%
%ADD13RoundRect,0.140000X0.140000X0.170000X-0.140000X0.170000X-0.140000X-0.170000X0.140000X-0.170000X0*%
%ADD14RoundRect,0.135000X-0.135000X-0.185000X0.135000X-0.185000X0.135000X0.185000X-0.135000X0.185000X0*%
%ADD15RoundRect,0.250000X-0.475000X0.250000X-0.475000X-0.250000X0.475000X-0.250000X0.475000X0.250000X0*%
%ADD16RoundRect,0.375000X-0.375000X0.625000X-0.375000X-0.625000X0.375000X-0.625000X0.375000X0.625000X0*%
%ADD17RoundRect,0.500000X-1.400000X0.500000X-1.400000X-0.500000X1.400000X-0.500000X1.400000X0.500000X0*%
%ADD18RoundRect,0.140000X-0.140000X-0.170000X0.140000X-0.170000X0.140000X0.170000X-0.140000X0.170000X0*%
%ADD19RoundRect,0.075000X-0.662500X-0.075000X0.662500X-0.075000X0.662500X0.075000X-0.662500X0.075000X0*%
%ADD20RoundRect,0.075000X-0.075000X-0.662500X0.075000X-0.662500X0.075000X0.662500X-0.075000X0.662500X0*%
%ADD21RoundRect,0.135000X0.135000X0.185000X-0.135000X0.185000X-0.135000X-0.185000X0.135000X-0.185000X0*%
%ADD22RoundRect,0.250000X0.475000X-0.250000X0.475000X0.250000X-0.475000X0.250000X-0.475000X-0.250000X0*%
%ADD23RoundRect,0.250000X-0.350000X0.450000X-0.350000X-0.450000X0.350000X-0.450000X0.350000X0.450000X0*%
%ADD24RoundRect,0.135000X-0.185000X0.135000X-0.185000X-0.135000X0.185000X-0.135000X0.185000X0.135000X0*%
%ADD25R,1.300000X0.450000*%
%ADD26R,0.800000X1.000000*%
%ADD27R,1.500000X0.700000*%
G04 APERTURE END LIST*
D10*
%TO.C,FB1*%
X95000000Y-64925000D03*
X95000000Y-66500000D03*
%TD*%
D11*
%TO.C,C11*%
X91500000Y-62460000D03*
X91500000Y-61500000D03*
%TD*%
D12*
%TO.C,C5*%
X95950000Y-52500000D03*
X97500000Y-52500000D03*
%TD*%
D13*
%TO.C,C8*%
X93460000Y-66000000D03*
X92500000Y-66000000D03*
%TD*%
D11*
%TO.C,C6*%
X94000000Y-61960000D03*
X94000000Y-61000000D03*
%TD*%
D14*
%TO.C,R1*%
X86500000Y-54000000D03*
X85480000Y-54000000D03*
%TD*%
D13*
%TO.C,C7*%
X93460000Y-65000000D03*
X92500000Y-65000000D03*
%TD*%
D14*
%TO.C,R4*%
X97480000Y-69500000D03*
X98500000Y-69500000D03*
%TD*%
D11*
%TO.C,C10*%
X91500000Y-60480000D03*
X91500000Y-59520000D03*
%TD*%
D15*
%TO.C,C2*%
X106000000Y-55600000D03*
X106000000Y-57500000D03*
%TD*%
D16*
%TO.C,U2*%
X112100000Y-65000000D03*
X109800000Y-65000000D03*
D17*
X109800000Y-71300000D03*
D16*
X107500000Y-65000000D03*
%TD*%
D18*
%TO.C,C12*%
X109040000Y-63000000D03*
X110000000Y-63000000D03*
%TD*%
D19*
%TO.C,U1*%
X95587500Y-57412500D03*
X95587500Y-57912500D03*
X95587500Y-58412500D03*
X95587500Y-58912500D03*
X95587500Y-59412500D03*
X95587500Y-59912500D03*
X95587500Y-60412500D03*
X95587500Y-60912500D03*
X95587500Y-61412500D03*
X95587500Y-61912500D03*
X95587500Y-62412500D03*
X95587500Y-62912500D03*
D20*
X97000000Y-64325000D03*
X97500000Y-64325000D03*
X98000000Y-64325000D03*
X98500000Y-64325000D03*
X99000000Y-64325000D03*
X99500000Y-64325000D03*
X100000000Y-64325000D03*
X100500000Y-64325000D03*
X101000000Y-64325000D03*
X101500000Y-64325000D03*
X102000000Y-64325000D03*
X102500000Y-64325000D03*
D19*
X103912500Y-62912500D03*
X103912500Y-62412500D03*
X103912500Y-61912500D03*
X103912500Y-61412500D03*
X103912500Y-60912500D03*
X103912500Y-60412500D03*
X103912500Y-59912500D03*
X103912500Y-59412500D03*
X103912500Y-58912500D03*
X103912500Y-58412500D03*
X103912500Y-57912500D03*
X103912500Y-57412500D03*
D20*
X102500000Y-56000000D03*
X102000000Y-56000000D03*
X101500000Y-56000000D03*
X101000000Y-56000000D03*
X100500000Y-56000000D03*
X100000000Y-56000000D03*
X99500000Y-56000000D03*
X99000000Y-56000000D03*
X98500000Y-56000000D03*
X98000000Y-56000000D03*
X97500000Y-56000000D03*
X97000000Y-56000000D03*
%TD*%
D21*
%TO.C,R5*%
X100510000Y-69500000D03*
X99490000Y-69500000D03*
%TD*%
D22*
%TO.C,C1*%
X93000000Y-56500000D03*
X93000000Y-54600000D03*
%TD*%
D23*
%TO.C,Y1*%
X88000000Y-59800000D03*
X88000000Y-62000000D03*
X89700000Y-62000000D03*
X89700000Y-59800000D03*
%TD*%
D24*
%TO.C,R3*%
X118000000Y-65980000D03*
X118000000Y-67000000D03*
%TD*%
D18*
%TO.C,C3*%
X96540000Y-54000000D03*
X97500000Y-54000000D03*
%TD*%
D25*
%TO.C,J1*%
X115150000Y-60175000D03*
X115150000Y-59525000D03*
X115150000Y-58875000D03*
X115150000Y-58225000D03*
X115150000Y-57575000D03*
%TD*%
D24*
%TO.C,R2*%
X111500000Y-57480000D03*
X111500000Y-58500000D03*
%TD*%
D13*
%TO.C,C9*%
X97500000Y-67000000D03*
X96540000Y-67000000D03*
%TD*%
D11*
%TO.C,C13*%
X114000000Y-68500000D03*
X114000000Y-67540000D03*
%TD*%
D10*
%TO.C,D1*%
X118000000Y-68425000D03*
X118000000Y-70000000D03*
%TD*%
D26*
%TO.C,SW1*%
X83110000Y-49350000D03*
X80900000Y-49350000D03*
X83110000Y-56650000D03*
X80900000Y-56650000D03*
D27*
X83760000Y-50750000D03*
X83760000Y-53750000D03*
X83760000Y-55250000D03*
%TD*%
D13*
%TO.C,C4*%
X103000000Y-66000000D03*
X102040000Y-66000000D03*
%TD*%
M02*
