M48
; DRILL file {KiCad 9.0.7} date 2026-04-28T11:46:44-0600
; FORMAT={-:-/ absolute / metric / decimal}
; #@! TF.CreationDate,2026-04-28T11:46:44-06:00
; #@! TF.GenerationSoftware,Kicad,Pcbnew,9.0.7
; #@! TF.FileFunction,Plated,1,2,PTH
FMAT,2
METRIC
; #@! TA.AperFunction,Plated,PTH,ViaDrill
T1C0.300
; #@! TA.AperFunction,Plated,PTH,ComponentDrill
T2C0.550
; #@! TA.AperFunction,Plated,PTH,ComponentDrill
T3C0.850
; #@! TA.AperFunction,Plated,PTH,ComponentDrill
T4C1.000
%
G90
G05
T1
X85.5Y-51.0
X89.5Y-49.0
X90.0Y-58.5
X91.5Y-65.5
X92.29Y-61.29
X93.0Y-53.5
X97.5Y-58.0
X97.5Y-66.0
X99.86Y-68.5
X101.16Y-68.5
X101.5Y-49.5
X102.0Y-63.0
X102.5Y-58.0
X104.5Y-73.5
X112.5Y-63.0
X113.5Y-57.0
X119.0Y-65.0
T4
X89.69Y-47.0
X92.23Y-47.0
X94.46Y-72.0
X94.77Y-47.0
X97.0Y-72.0
X97.31Y-47.0
X99.54Y-72.0
X101.5Y-47.0
X102.08Y-72.0
X104.04Y-47.0
X106.58Y-47.0
X109.12Y-47.0
T2
G00X118.675Y-55.0
M15
G01X119.325Y-55.0
M16
G05
G00X118.675Y-62.75
M15
G01X119.325Y-62.75
M16
G05
T3
G00X114.925Y-55.15
M15
G01X115.475Y-55.15
M16
G05
G00X114.925Y-62.6
M15
G01X115.475Y-62.6
M16
G05
M30
