%TF.GenerationSoftware,KiCad,Pcbnew,9.0.7*%
%TF.CreationDate,2026-04-28T11:46:31-06:00*%
%TF.ProjectId,PhilsLabTotorial,5068696c-734c-4616-9254-6f746f726961,rev?*%
%TF.SameCoordinates,Original*%
%TF.FileFunction,Copper,L1,Top*%
%TF.FilePolarity,Positive*%
%FSLAX46Y46*%
G04 Gerber Fmt 4.6, Leading zero omitted, Abs format (unit mm)*
G04 Created by KiCad (PCBNEW 9.0.7) date 2026-04-28 11:46:31*
%MOMM*%
%LPD*%
G01*
G04 APERTURE LIST*
G04 Aperture macros list*
%AMRoundRect*
0 Rectangle with rounded corners*
0 $1 Rounding radius*
0 $2 $3 $4 $5 $6 $7 $8 $9 X,Y pos of 4 corners*
0 Add a 4 corners polygon primitive as box body*
4,1,4,$2,$3,$4,$5,$6,$7,$8,$9,$2,$3,0*
0 Add four circle primitives for the rounded corners*
1,1,$1+$1,$2,$3*
1,1,$1+$1,$4,$5*
1,1,$1+$1,$6,$7*
1,1,$1+$1,$8,$9*
0 Add four rect primitives between the rounded corners*
20,1,$1+$1,$2,$3,$4,$5,0*
20,1,$1+$1,$4,$5,$6,$7,0*
20,1,$1+$1,$6,$7,$8,$9,0*
20,1,$1+$1,$8,$9,$2,$3,0*%
G04 Aperture macros list end*
%TA.AperFunction,NonConductor*%
%ADD10C,0.200000*%
%TD*%
%TA.AperFunction,SMDPad,CuDef*%
%ADD11RoundRect,0.218750X-0.256250X0.218750X-0.256250X-0.218750X0.256250X-0.218750X0.256250X0.218750X0*%
%TD*%
%TA.AperFunction,SMDPad,CuDef*%
%ADD12RoundRect,0.140000X0.170000X-0.140000X0.170000X0.140000X-0.170000X0.140000X-0.170000X-0.140000X0*%
%TD*%
%TA.AperFunction,SMDPad,CuDef*%
%ADD13RoundRect,0.225000X-0.225000X-0.250000X0.225000X-0.250000X0.225000X0.250000X-0.225000X0.250000X0*%
%TD*%
%TA.AperFunction,SMDPad,CuDef*%
%ADD14RoundRect,0.140000X0.140000X0.170000X-0.140000X0.170000X-0.140000X-0.170000X0.140000X-0.170000X0*%
%TD*%
%TA.AperFunction,SMDPad,CuDef*%
%ADD15RoundRect,0.135000X-0.135000X-0.185000X0.135000X-0.185000X0.135000X0.185000X-0.135000X0.185000X0*%
%TD*%
%TA.AperFunction,ComponentPad*%
%ADD16R,1.700000X1.700000*%
%TD*%
%TA.AperFunction,ComponentPad*%
%ADD17C,1.700000*%
%TD*%
%TA.AperFunction,SMDPad,CuDef*%
%ADD18RoundRect,0.250000X-0.475000X0.250000X-0.475000X-0.250000X0.475000X-0.250000X0.475000X0.250000X0*%
%TD*%
%TA.AperFunction,SMDPad,CuDef*%
%ADD19RoundRect,0.375000X-0.375000X0.625000X-0.375000X-0.625000X0.375000X-0.625000X0.375000X0.625000X0*%
%TD*%
%TA.AperFunction,SMDPad,CuDef*%
%ADD20RoundRect,0.500000X-1.400000X0.500000X-1.400000X-0.500000X1.400000X-0.500000X1.400000X0.500000X0*%
%TD*%
%TA.AperFunction,SMDPad,CuDef*%
%ADD21RoundRect,0.140000X-0.140000X-0.170000X0.140000X-0.170000X0.140000X0.170000X-0.140000X0.170000X0*%
%TD*%
%TA.AperFunction,SMDPad,CuDef*%
%ADD22RoundRect,0.075000X-0.662500X-0.075000X0.662500X-0.075000X0.662500X0.075000X-0.662500X0.075000X0*%
%TD*%
%TA.AperFunction,SMDPad,CuDef*%
%ADD23RoundRect,0.075000X-0.075000X-0.662500X0.075000X-0.662500X0.075000X0.662500X-0.075000X0.662500X0*%
%TD*%
%TA.AperFunction,SMDPad,CuDef*%
%ADD24RoundRect,0.135000X0.135000X0.185000X-0.135000X0.185000X-0.135000X-0.185000X0.135000X-0.185000X0*%
%TD*%
%TA.AperFunction,SMDPad,CuDef*%
%ADD25RoundRect,0.250000X0.475000X-0.250000X0.475000X0.250000X-0.475000X0.250000X-0.475000X-0.250000X0*%
%TD*%
%TA.AperFunction,SMDPad,CuDef*%
%ADD26RoundRect,0.250000X-0.350000X0.450000X-0.350000X-0.450000X0.350000X-0.450000X0.350000X0.450000X0*%
%TD*%
%TA.AperFunction,SMDPad,CuDef*%
%ADD27RoundRect,0.135000X-0.185000X0.135000X-0.185000X-0.135000X0.185000X-0.135000X0.185000X0.135000X0*%
%TD*%
%TA.AperFunction,SMDPad,CuDef*%
%ADD28R,1.300000X0.450000*%
%TD*%
%TA.AperFunction,HeatsinkPad*%
%ADD29O,1.800000X1.150000*%
%TD*%
%TA.AperFunction,HeatsinkPad*%
%ADD30O,2.000000X1.450000*%
%TD*%
%TA.AperFunction,SMDPad,CuDef*%
%ADD31R,0.800000X1.000000*%
%TD*%
%TA.AperFunction,SMDPad,CuDef*%
%ADD32R,1.500000X0.700000*%
%TD*%
%TA.AperFunction,ViaPad*%
%ADD33C,0.600000*%
%TD*%
%TA.AperFunction,Conductor*%
%ADD34C,0.300000*%
%TD*%
%TA.AperFunction,Conductor*%
%ADD35C,0.500000*%
%TD*%
%TA.AperFunction,Conductor*%
%ADD36C,0.200000*%
%TD*%
G04 APERTURE END LIST*
D10*
X77000000Y-40000000D02*
X122000000Y-40000000D01*
X122000000Y-78000000D02*
X74000000Y-78000000D01*
X122000000Y-78000000D02*
X122000000Y-75000000D01*
X74000000Y-75000000D02*
X74000000Y-78000000D01*
X74000000Y-40000000D02*
X74000000Y-75000000D01*
X77000000Y-40000000D02*
X74000000Y-40000000D01*
X122000000Y-75000000D02*
X122000000Y-40000000D01*
D11*
%TO.P,FB1,1*%
%TO.N,+3.3VA*%
X95000000Y-64925000D03*
%TO.P,FB1,2*%
%TO.N,+3.3V*%
X95000000Y-66500000D03*
%TD*%
D12*
%TO.P,C11,1*%
%TO.N,/HSE_OUT*%
X91500000Y-62460000D03*
%TO.P,C11,2*%
%TO.N,GND*%
X91500000Y-61500000D03*
%TD*%
D13*
%TO.P,C5,1*%
%TO.N,+3.3V*%
X95950000Y-52500000D03*
%TO.P,C5,2*%
%TO.N,GND*%
X97500000Y-52500000D03*
%TD*%
D14*
%TO.P,C8,1*%
%TO.N,+3.3V*%
X93460000Y-66000000D03*
%TO.P,C8,2*%
%TO.N,GND*%
X92500000Y-66000000D03*
%TD*%
D12*
%TO.P,C6,1*%
%TO.N,+3.3VA*%
X94000000Y-61960000D03*
%TO.P,C6,2*%
%TO.N,GND*%
X94000000Y-61000000D03*
%TD*%
D15*
%TO.P,R1,2*%
%TO.N,/BOOT0*%
X86500000Y-54000000D03*
%TO.P,R1,1*%
%TO.N,/SW_BOOT0*%
X85480000Y-54000000D03*
%TD*%
D14*
%TO.P,C7,1*%
%TO.N,+3.3VA*%
X93460000Y-65000000D03*
%TO.P,C7,2*%
%TO.N,GND*%
X92500000Y-65000000D03*
%TD*%
D16*
%TO.P,J2,1,Pin_1*%
%TO.N,+3.3V*%
X109120000Y-47000000D03*
D17*
%TO.P,J2,2,Pin_2*%
%TO.N,/SWDIO*%
X106580000Y-47000000D03*
%TO.P,J2,3,Pin_3*%
%TO.N,/SW_CLK*%
X104040000Y-47000000D03*
%TO.P,J2,4,Pin_4*%
%TO.N,GND*%
X101500000Y-47000000D03*
%TD*%
D15*
%TO.P,R4,1*%
%TO.N,/I2C2_SCL*%
X97480000Y-69500000D03*
%TO.P,R4,2*%
%TO.N,+3.3V*%
X98500000Y-69500000D03*
%TD*%
D12*
%TO.P,C10,1*%
%TO.N,/HSE_IN*%
X91500000Y-60480000D03*
%TO.P,C10,2*%
%TO.N,GND*%
X91500000Y-59520000D03*
%TD*%
D18*
%TO.P,C2,1*%
%TO.N,+3.3V*%
X106000000Y-55600000D03*
%TO.P,C2,2*%
%TO.N,GND*%
X106000000Y-57500000D03*
%TD*%
D16*
%TO.P,J4,1,Pin_1*%
%TO.N,+3.3V*%
X94460000Y-72000000D03*
D17*
%TO.P,J4,2,Pin_2*%
%TO.N,/I2C2_SCL*%
X97000000Y-72000000D03*
%TO.P,J4,3,Pin_3*%
%TO.N,/I2C2_SDA*%
X99540000Y-72000000D03*
%TO.P,J4,4,Pin_4*%
%TO.N,GND*%
X102080000Y-72000000D03*
%TD*%
D19*
%TO.P,U2,1,GND*%
%TO.N,GND*%
X112100000Y-65000000D03*
%TO.P,U2,2,VO*%
%TO.N,+3.3V*%
X109800000Y-65000000D03*
D20*
X109800000Y-71300000D03*
D19*
%TO.P,U2,3,VI*%
%TO.N,VBUS*%
X107500000Y-65000000D03*
%TD*%
D21*
%TO.P,C12,1*%
%TO.N,VBUS*%
X109040000Y-63000000D03*
%TO.P,C12,2*%
%TO.N,GND*%
X110000000Y-63000000D03*
%TD*%
D22*
%TO.P,U1,1,VBAT*%
%TO.N,+3.3V*%
X95587500Y-57412500D03*
%TO.P,U1,2,PC13*%
%TO.N,unconnected-(U1-PC13-Pad2)*%
X95587500Y-57912500D03*
%TO.P,U1,3,PC14*%
%TO.N,unconnected-(U1-PC14-Pad3)*%
X95587500Y-58412500D03*
%TO.P,U1,4,PC15*%
%TO.N,unconnected-(U1-PC15-Pad4)*%
X95587500Y-58912500D03*
%TO.P,U1,5,PD0*%
%TO.N,/HSE_IN*%
X95587500Y-59412500D03*
%TO.P,U1,6,PD1*%
%TO.N,/HSE_OUT*%
X95587500Y-59912500D03*
%TO.P,U1,7,NRST*%
%TO.N,/NRST*%
X95587500Y-60412500D03*
%TO.P,U1,8,VSSA*%
%TO.N,GND*%
X95587500Y-60912500D03*
%TO.P,U1,9,VDDA*%
%TO.N,+3.3VA*%
X95587500Y-61412500D03*
%TO.P,U1,10,PA0*%
%TO.N,unconnected-(U1-PA0-Pad10)*%
X95587500Y-61912500D03*
%TO.P,U1,11,PA1*%
%TO.N,unconnected-(U1-PA1-Pad11)*%
X95587500Y-62412500D03*
%TO.P,U1,12,PA2*%
%TO.N,unconnected-(U1-PA2-Pad12)*%
X95587500Y-62912500D03*
D23*
%TO.P,U1,13,PA3*%
%TO.N,unconnected-(U1-PA3-Pad13)*%
X97000000Y-64325000D03*
%TO.P,U1,14,PA4*%
%TO.N,unconnected-(U1-PA4-Pad14)*%
X97500000Y-64325000D03*
%TO.P,U1,15,PA5*%
%TO.N,unconnected-(U1-PA5-Pad15)*%
X98000000Y-64325000D03*
%TO.P,U1,16,PA6*%
%TO.N,unconnected-(U1-PA6-Pad16)*%
X98500000Y-64325000D03*
%TO.P,U1,17,PA7*%
%TO.N,unconnected-(U1-PA7-Pad17)*%
X99000000Y-64325000D03*
%TO.P,U1,18,PB0*%
%TO.N,unconnected-(U1-PB0-Pad18)*%
X99500000Y-64325000D03*
%TO.P,U1,19,PB1*%
%TO.N,unconnected-(U1-PB1-Pad19)*%
X100000000Y-64325000D03*
%TO.P,U1,20,PB2*%
%TO.N,unconnected-(U1-PB2-Pad20)*%
X100500000Y-64325000D03*
%TO.P,U1,21,PB10*%
%TO.N,/I2C2_SCL*%
X101000000Y-64325000D03*
%TO.P,U1,22,PB11*%
%TO.N,/I2C2_SDA*%
X101500000Y-64325000D03*
%TO.P,U1,23,VSS*%
%TO.N,GND*%
X102000000Y-64325000D03*
%TO.P,U1,24,VDD*%
%TO.N,+3.3V*%
X102500000Y-64325000D03*
D22*
%TO.P,U1,25,PB12*%
%TO.N,unconnected-(U1-PB12-Pad25)*%
X103912500Y-62912500D03*
%TO.P,U1,26,PB13*%
%TO.N,unconnected-(U1-PB13-Pad26)*%
X103912500Y-62412500D03*
%TO.P,U1,27,PB14*%
%TO.N,unconnected-(U1-PB14-Pad27)*%
X103912500Y-61912500D03*
%TO.P,U1,28,PB15*%
%TO.N,unconnected-(U1-PB15-Pad28)*%
X103912500Y-61412500D03*
%TO.P,U1,29,PA8*%
%TO.N,unconnected-(U1-PA8-Pad29)*%
X103912500Y-60912500D03*
%TO.P,U1,30,PA9*%
%TO.N,unconnected-(U1-PA9-Pad30)*%
X103912500Y-60412500D03*
%TO.P,U1,31,PA10*%
%TO.N,unconnected-(U1-PA10-Pad31)*%
X103912500Y-59912500D03*
%TO.P,U1,32,PA11*%
%TO.N,/USB_D-*%
X103912500Y-59412500D03*
%TO.P,U1,33,PA12*%
%TO.N,/USB_D+*%
X103912500Y-58912500D03*
%TO.P,U1,34,PA13*%
%TO.N,/SWDIO*%
X103912500Y-58412500D03*
%TO.P,U1,35,VSS*%
%TO.N,GND*%
X103912500Y-57912500D03*
%TO.P,U1,36,VDD*%
%TO.N,+3.3V*%
X103912500Y-57412500D03*
D23*
%TO.P,U1,37,PA14*%
%TO.N,/SW_CLK*%
X102500000Y-56000000D03*
%TO.P,U1,38,PA15*%
%TO.N,unconnected-(U1-PA15-Pad38)*%
X102000000Y-56000000D03*
%TO.P,U1,39,PB3*%
%TO.N,unconnected-(U1-PB3-Pad39)*%
X101500000Y-56000000D03*
%TO.P,U1,40,PB4*%
%TO.N,unconnected-(U1-PB4-Pad40)*%
X101000000Y-56000000D03*
%TO.P,U1,41,PB5*%
%TO.N,unconnected-(U1-PB5-Pad41)*%
X100500000Y-56000000D03*
%TO.P,U1,42,PB6*%
%TO.N,/UART1_TX*%
X100000000Y-56000000D03*
%TO.P,U1,43,PB7*%
%TO.N,/UART1_RX*%
X99500000Y-56000000D03*
%TO.P,U1,44,BOOT0*%
%TO.N,/BOOT0*%
X99000000Y-56000000D03*
%TO.P,U1,45,PB8*%
%TO.N,unconnected-(U1-PB8-Pad45)*%
X98500000Y-56000000D03*
%TO.P,U1,46,PB9*%
%TO.N,unconnected-(U1-PB9-Pad46)*%
X98000000Y-56000000D03*
%TO.P,U1,47,VSS*%
%TO.N,GND*%
X97500000Y-56000000D03*
%TO.P,U1,48,VDD*%
%TO.N,+3.3V*%
X97000000Y-56000000D03*
%TD*%
D24*
%TO.P,R5,1*%
%TO.N,/I2C2_SDA*%
X100510000Y-69500000D03*
%TO.P,R5,2*%
%TO.N,+3.3V*%
X99490000Y-69500000D03*
%TD*%
D25*
%TO.P,C1,1*%
%TO.N,+3.3V*%
X93000000Y-56500000D03*
%TO.P,C1,2*%
%TO.N,GND*%
X93000000Y-54600000D03*
%TD*%
D26*
%TO.P,Y1,1,1*%
%TO.N,/HSE_IN*%
X88000000Y-59800000D03*
%TO.P,Y1,2,G*%
%TO.N,GND*%
X88000000Y-62000000D03*
%TO.P,Y1,3,3*%
%TO.N,/HSE_OUT*%
X89700000Y-62000000D03*
%TO.P,Y1,4,G*%
%TO.N,GND*%
X89700000Y-59800000D03*
%TD*%
D27*
%TO.P,R3,1*%
%TO.N,GND*%
X118000000Y-65980000D03*
%TO.P,R3,2*%
%TO.N,/PWR_LED_k*%
X118000000Y-67000000D03*
%TD*%
D21*
%TO.P,C3,1*%
%TO.N,+3.3V*%
X96540000Y-54000000D03*
%TO.P,C3,2*%
%TO.N,GND*%
X97500000Y-54000000D03*
%TD*%
D28*
%TO.P,J1,1,VBUS*%
%TO.N,VBUS*%
X115150000Y-60175000D03*
%TO.P,J1,2,D-*%
%TO.N,/USB_D-*%
X115150000Y-59525000D03*
%TO.P,J1,3,D+*%
%TO.N,/USB_D+*%
X115150000Y-58875000D03*
%TO.P,J1,4,ID*%
%TO.N,unconnected-(J1-ID-Pad4)*%
X115150000Y-58225000D03*
%TO.P,J1,5,GND*%
%TO.N,GND*%
X115150000Y-57575000D03*
D29*
%TO.P,J1,6,Shield*%
%TO.N,unconnected-(J1-Shield-Pad6)_3*%
X119000000Y-62750000D03*
D30*
%TO.N,unconnected-(J1-Shield-Pad6)*%
X115200000Y-62600000D03*
%TO.N,unconnected-(J1-Shield-Pad6)_1*%
X115200000Y-55150000D03*
D29*
%TO.N,unconnected-(J1-Shield-Pad6)_2*%
X119000000Y-55000000D03*
%TD*%
D27*
%TO.P,R2,1*%
%TO.N,+3.3V*%
X111500000Y-57480000D03*
%TO.P,R2,2*%
%TO.N,/USB_D+*%
X111500000Y-58500000D03*
%TD*%
D14*
%TO.P,C9,1*%
%TO.N,GND*%
X97500000Y-67000000D03*
%TO.P,C9,2*%
%TO.N,/NRST*%
X96540000Y-67000000D03*
%TD*%
D12*
%TO.P,C13,1*%
%TO.N,+3.3V*%
X114000000Y-68500000D03*
%TO.P,C13,2*%
%TO.N,GND*%
X114000000Y-67540000D03*
%TD*%
D11*
%TO.P,D1,1,K*%
%TO.N,/PWR_LED_k*%
X118000000Y-68425000D03*
%TO.P,D1,2,A*%
%TO.N,+3.3V*%
X118000000Y-70000000D03*
%TD*%
D31*
%TO.P,SW1,*%
%TO.N,*%
X83110000Y-49350000D03*
X80900000Y-49350000D03*
X83110000Y-56650000D03*
X80900000Y-56650000D03*
D32*
%TO.P,SW1,1,A*%
%TO.N,GND*%
X83760000Y-50750000D03*
%TO.P,SW1,2,B*%
%TO.N,/SW_BOOT0*%
X83760000Y-53750000D03*
%TO.P,SW1,3,C*%
%TO.N,+3.3V*%
X83760000Y-55250000D03*
%TD*%
D16*
%TO.P,J3,1,Pin_1*%
%TO.N,+3.3V*%
X97310000Y-47000000D03*
D17*
%TO.P,J3,2,Pin_2*%
%TO.N,/UART1_TX*%
X94770000Y-47000000D03*
%TO.P,J3,3,Pin_3*%
%TO.N,/UART1_RX*%
X92230000Y-47000000D03*
%TO.P,J3,4,Pin_4*%
%TO.N,GND*%
X89690000Y-47000000D03*
%TD*%
D14*
%TO.P,C4,1*%
%TO.N,+3.3V*%
X103000000Y-66000000D03*
%TO.P,C4,2*%
%TO.N,GND*%
X102040000Y-66000000D03*
%TD*%
D33*
%TO.N,GND*%
X97500000Y-58000000D03*
%TO.N,+3.3V*%
X101160000Y-68500000D03*
X99860000Y-68500000D03*
%TO.N,GND*%
X113500000Y-57000000D03*
X89500000Y-49000000D03*
X101500000Y-49500000D03*
X91500000Y-65500000D03*
X92290380Y-61290380D03*
X104500000Y-73500000D03*
X119000000Y-65000000D03*
X112500000Y-63000000D03*
X102500000Y-58000000D03*
X85500000Y-51000000D03*
X97500000Y-66000000D03*
X102000000Y-63000000D03*
X90000000Y-58500000D03*
X93000000Y-53500000D03*
%TD*%
D34*
%TO.N,+3.3V*%
X103849000Y-57349000D02*
X103912500Y-57412500D01*
X102230346Y-57349000D02*
X103849000Y-57349000D01*
X101849000Y-57730346D02*
X102230346Y-57349000D01*
X101849000Y-61928346D02*
X101849000Y-57730346D01*
X102269654Y-62349000D02*
X101849000Y-61928346D01*
X100928346Y-62349000D02*
X102269654Y-62349000D01*
X102269654Y-62349000D02*
X102651000Y-62730346D01*
X96849000Y-57730346D02*
X96849000Y-58269654D01*
X96849000Y-58269654D02*
X100928346Y-62349000D01*
X96531154Y-57412500D02*
X96849000Y-57730346D01*
X95587500Y-57412500D02*
X96531154Y-57412500D01*
X102651000Y-62730346D02*
X102651000Y-64175000D01*
X102651000Y-64175000D02*
X102501000Y-64325000D01*
X97000000Y-56000000D02*
X95587500Y-57412500D01*
%TO.N,GND*%
X97500000Y-56000000D02*
X97500000Y-58000000D01*
D35*
%TO.N,+3.3V*%
X103000000Y-66660000D02*
X103000000Y-66000000D01*
X101160000Y-68500000D02*
X103000000Y-66660000D01*
X99490000Y-68870000D02*
X99860000Y-68500000D01*
X99490000Y-69500000D02*
X99490000Y-68870000D01*
X104500000Y-66000000D02*
X103000000Y-66000000D01*
X109800000Y-71300000D02*
X104500000Y-66000000D01*
X109800000Y-65000000D02*
X109800000Y-71300000D01*
D34*
%TO.N,GND*%
X114075000Y-57575000D02*
X113500000Y-57000000D01*
X115150000Y-57575000D02*
X114075000Y-57575000D01*
D35*
X87000000Y-58500000D02*
X90000000Y-58500000D01*
X86949000Y-58551000D02*
X87000000Y-58500000D01*
X86949000Y-60949000D02*
X86949000Y-58551000D01*
X88000000Y-62000000D02*
X86949000Y-60949000D01*
D34*
%TO.N,+3.3V*%
X111500000Y-49380000D02*
X109120000Y-47000000D01*
X111500000Y-57480000D02*
X111500000Y-49380000D01*
%TO.N,/USB_D+*%
X111500000Y-58500000D02*
X111500000Y-58937500D01*
D36*
X111500000Y-58937500D02*
X105043751Y-58937500D01*
D35*
%TO.N,+3.3V*%
X116700000Y-71200000D02*
X114000000Y-68500000D01*
X116700000Y-71300000D02*
X116700000Y-71200000D01*
D34*
%TO.N,/PWR_LED_k*%
X118000000Y-67000000D02*
X118000000Y-68425000D01*
D35*
%TO.N,+3.3V*%
X116700000Y-71300000D02*
X118000000Y-70000000D01*
X109800000Y-71300000D02*
X116700000Y-71300000D01*
%TO.N,GND*%
X112100000Y-65640000D02*
X114000000Y-67540000D01*
X112100000Y-65000000D02*
X112100000Y-65640000D01*
X89690000Y-48810000D02*
X89500000Y-49000000D01*
X89690000Y-47000000D02*
X89690000Y-48810000D01*
X101500000Y-47000000D02*
X101500000Y-49500000D01*
X92000000Y-66000000D02*
X91500000Y-65500000D01*
X92500000Y-66000000D02*
X92000000Y-66000000D01*
X92000000Y-65000000D02*
X91500000Y-65500000D01*
X92500000Y-65000000D02*
X92000000Y-65000000D01*
X91709620Y-61290380D02*
X91500000Y-61500000D01*
X92290380Y-61290380D02*
X91709620Y-61290380D01*
D34*
%TO.N,/HSE_OUT*%
X93000000Y-60500000D02*
X93587500Y-59912500D01*
X93000000Y-61500000D02*
X93000000Y-60500000D01*
X93587500Y-59912500D02*
X95587500Y-59912500D01*
X92040000Y-62460000D02*
X93000000Y-61500000D01*
X91500000Y-62460000D02*
X92040000Y-62460000D01*
D35*
%TO.N,GND*%
X91020000Y-59520000D02*
X90000000Y-58500000D01*
X91500000Y-59520000D02*
X91020000Y-59520000D01*
X103580000Y-73500000D02*
X104500000Y-73500000D01*
X102080000Y-72000000D02*
X103580000Y-73500000D01*
X118020000Y-65980000D02*
X119000000Y-65000000D01*
X118000000Y-65980000D02*
X118020000Y-65980000D01*
X110000000Y-63000000D02*
X111700000Y-63000000D01*
X111700000Y-63000000D02*
X112100000Y-63400000D01*
X112100000Y-63400000D02*
X112500000Y-63000000D01*
X112100000Y-65000000D02*
X112100000Y-63400000D01*
D34*
X102587500Y-57912500D02*
X102500000Y-58000000D01*
X103912500Y-57912500D02*
X102587500Y-57912500D01*
%TO.N,+3.3V*%
X105379000Y-54979000D02*
X106000000Y-55600000D01*
X105379000Y-46502529D02*
X105379000Y-54979000D01*
X106082529Y-45799000D02*
X105379000Y-46502529D01*
X107919000Y-45799000D02*
X106082529Y-45799000D01*
X109120000Y-47000000D02*
X107919000Y-45799000D01*
D35*
X91750000Y-55250000D02*
X93000000Y-56500000D01*
X83760000Y-55250000D02*
X91750000Y-55250000D01*
%TO.N,GND*%
X85250000Y-50750000D02*
X85500000Y-51000000D01*
X83760000Y-50750000D02*
X85250000Y-50750000D01*
%TO.N,+3.3VA*%
X95000000Y-64925000D02*
X94000000Y-63925000D01*
X94000000Y-63925000D02*
X94000000Y-61960000D01*
%TO.N,GND*%
X97500000Y-67000000D02*
X97500000Y-66000000D01*
D34*
X102000000Y-64325000D02*
X102000000Y-63000000D01*
D35*
X89700000Y-58800000D02*
X90000000Y-58500000D01*
X89700000Y-59800000D02*
X89700000Y-58800000D01*
X93000000Y-54600000D02*
X93000000Y-53500000D01*
D34*
%TO.N,+3.3V*%
X94675000Y-56500000D02*
X95587500Y-57412500D01*
X93000000Y-56500000D02*
X94675000Y-56500000D01*
%TO.N,/I2C2_SDA*%
X100510000Y-71030000D02*
X99540000Y-72000000D01*
X100510000Y-69500000D02*
X100510000Y-71030000D01*
%TO.N,/I2C2_SCL*%
X97480000Y-71520000D02*
X97000000Y-72000000D01*
X97480000Y-69500000D02*
X97480000Y-71520000D01*
X97480000Y-68687034D02*
X97480000Y-69500000D01*
X101000000Y-64325000D02*
X101000000Y-65167034D01*
X101000000Y-65167034D02*
X97480000Y-68687034D01*
%TO.N,/I2C2_SDA*%
X100500000Y-66500000D02*
X100510000Y-66510000D01*
X100510000Y-66510000D02*
X100510000Y-69500000D01*
X101500000Y-65500000D02*
X100500000Y-66500000D01*
X101500000Y-64325000D02*
X101500000Y-65500000D01*
%TO.N,/SW_BOOT0*%
X84010000Y-54000000D02*
X83760000Y-53750000D01*
X85480000Y-54000000D02*
X84010000Y-54000000D01*
%TO.N,/BOOT0*%
X97969822Y-51674000D02*
X88826000Y-51674000D01*
X99000000Y-52704178D02*
X97969822Y-51674000D01*
X99000000Y-56000000D02*
X99000000Y-52704178D01*
X88826000Y-51674000D02*
X86500000Y-54000000D01*
%TO.N,/UART1_RX*%
X98000000Y-49500000D02*
X94730000Y-49500000D01*
X99500000Y-51000000D02*
X98000000Y-49500000D01*
X99500000Y-56000000D02*
X99500000Y-51000000D01*
X94730000Y-49500000D02*
X92230000Y-47000000D01*
%TO.N,/UART1_TX*%
X96770000Y-49000000D02*
X94770000Y-47000000D01*
X98500000Y-49000000D02*
X96770000Y-49000000D01*
X100000000Y-50500000D02*
X98500000Y-49000000D01*
X100000000Y-56000000D02*
X100000000Y-50500000D01*
%TO.N,/SWDIO*%
X107500000Y-47920000D02*
X106580000Y-47000000D01*
X107087500Y-58412500D02*
X107500000Y-58000000D01*
X103912500Y-58412500D02*
X107087500Y-58412500D01*
X107500000Y-58000000D02*
X107500000Y-47920000D01*
%TO.N,/SW_CLK*%
X102500000Y-48540000D02*
X104040000Y-47000000D01*
X102500000Y-56000000D02*
X102500000Y-48540000D01*
D36*
%TO.N,/USB_D+*%
X105018751Y-58912500D02*
X103912500Y-58912500D01*
X105043751Y-58937500D02*
X105018751Y-58912500D01*
X114147204Y-58937500D02*
X111500000Y-58937500D01*
X114625000Y-58975000D02*
X114184704Y-58975000D01*
X114725000Y-58875000D02*
X114625000Y-58975000D01*
X115150000Y-58875000D02*
X114725000Y-58875000D01*
X114184704Y-58975000D02*
X114147204Y-58937500D01*
%TO.N,/USB_D-*%
X114625000Y-59425000D02*
X114012498Y-59425000D01*
X115150000Y-59525000D02*
X114725000Y-59525000D01*
X114012498Y-59425000D02*
X113974998Y-59387500D01*
X114725000Y-59525000D02*
X114625000Y-59425000D01*
X103912500Y-59412500D02*
X105018751Y-59412500D01*
X105043751Y-59387500D02*
X113974998Y-59387500D01*
X105018751Y-59412500D02*
X105043751Y-59387500D01*
D34*
%TO.N,/HSE_OUT*%
X90160000Y-62460000D02*
X89700000Y-62000000D01*
X91500000Y-62460000D02*
X90160000Y-62460000D01*
%TO.N,/HSE_IN*%
X89051000Y-60851000D02*
X88000000Y-59800000D01*
X91129000Y-60851000D02*
X89051000Y-60851000D01*
X91500000Y-60480000D02*
X91129000Y-60851000D01*
X92020000Y-60480000D02*
X91500000Y-60480000D01*
X93087500Y-59412500D02*
X92020000Y-60480000D01*
X95587500Y-59412500D02*
X93087500Y-59412500D01*
%TO.N,GND*%
X103912500Y-57912500D02*
X104754534Y-57912500D01*
X105167034Y-57500000D02*
X104754534Y-57912500D01*
X106000000Y-57500000D02*
X105167034Y-57500000D01*
%TO.N,+3.3V*%
X105725000Y-55600000D02*
X103912500Y-57412500D01*
X106000000Y-55600000D02*
X105725000Y-55600000D01*
%TO.N,GND*%
X102040000Y-65500000D02*
X102040000Y-65207034D01*
X102000000Y-65167034D02*
X102040000Y-65207034D01*
%TO.N,+3.3V*%
X103000000Y-64825000D02*
X102500000Y-64325000D01*
X103000000Y-66000000D02*
X103000000Y-64825000D01*
%TO.N,GND*%
X102000000Y-64325000D02*
X102000000Y-65167034D01*
X102040000Y-66000000D02*
X102040000Y-65500000D01*
%TO.N,+3.3VA*%
X94745466Y-61412500D02*
X94197966Y-61960000D01*
X95587500Y-61412500D02*
X94745466Y-61412500D01*
X94197966Y-61960000D02*
X94000000Y-61960000D01*
%TO.N,GND*%
X94087500Y-60912500D02*
X94000000Y-61000000D01*
X95587500Y-60912500D02*
X94087500Y-60912500D01*
%TO.N,+3.3V*%
X96540000Y-53090000D02*
X95950000Y-52500000D01*
X96540000Y-54000000D02*
X96540000Y-53090000D01*
%TO.N,GND*%
X97500000Y-54000000D02*
X97500000Y-52500000D01*
X97500000Y-56000000D02*
X97500000Y-54000000D01*
%TO.N,+3.3V*%
X96540000Y-55540000D02*
X96540000Y-54000000D01*
X97000000Y-56000000D02*
X96540000Y-55540000D01*
%TD*%
M02*
